<svg xmlns="http://www.w3.org/2000/svg" xmlns:xlink="http://www.w3.org/1999/xlink" version="1.1" x="0px" y="0px" viewBox="-25 -25 150 150" style="enable-background:new 0 0 100 100;" xml:space="preserve"><style type="text/css">
	.st0{fill:none;stroke:#fff;stroke-width:2;stroke-linecap:round;stroke-linejoin:round;stroke-miterlimit:10;}
	.st1{fill:none;stroke:#fff;stroke-width:2;stroke-miterlimit:10;}
</style>
<rect x="-25" y="-25" width="150" height="150" fill="#d35400"/>
<path d="M49.4,29.5v1.9c-1.8,0.2-3.5,1.1-4.6,2.4c-1.2,1.3-1.7,3-1.5,4.7l0.5,6.9l3,38.5c0.1,1.6,0.9,4.7,3.6,4.7c0,0,0,0,0,0  c2.7,0,3.5-3,3.6-4.6l3.6-45.4c0.2-1.7-0.3-3.4-1.5-4.7c-1.2-1.3-2.8-2.1-4.6-2.4v-1.9c1.2-0.8,4.8-2.8,7.1-4.1  c0.5-0.3,0.6-0.9,0.4-1.4c-0.3-0.5-0.9-0.6-1.4-0.4c-3,1.7-4.9,2.8-6.1,3.5v-4.4c1.1-0.7,4.2-2.5,6.2-3.6c0.5-0.3,0.6-0.9,0.4-1.4  c-0.3-0.5-0.9-0.6-1.4-0.4c-2.5,1.4-4.1,2.4-5.2,3V16c0.8-0.5,2.7-1.6,4.4-2.6c0.5-0.3,0.6-0.9,0.4-1.4c-0.3-0.5-0.9-0.6-1.4-0.4  c-1.5,0.9-2.6,1.5-3.4,2v-2.9c0-0.6-0.4-1-1-1s-1,0.4-1,1v2.9c-0.8-0.5-1.9-1.1-3.4-2c-0.5-0.3-1.1-0.1-1.4,0.4s-0.1,1.1,0.4,1.4  c1.7,1,3.6,2.1,4.4,2.6v4.4c-1.1-0.6-2.7-1.6-5.2-3c-0.5-0.3-1.1-0.1-1.4,0.4c-0.3,0.5-0.1,1.1,0.4,1.4c2,1.2,5.1,3,6.2,3.6v4.4  c-1.2-0.7-3.1-1.8-6.1-3.6c-0.5-0.3-1.1-0.1-1.4,0.4c-0.3,0.5-0.1,1.1,0.4,1.4C44.6,26.6,48.2,28.7,49.4,29.5z M52,83.7  c0,0-0.1,2.7-1.6,2.7c-1.5,0.1-1.6-2.7-1.6-2.8l-0.6-7.2h4.4L52,83.7z M52.7,74.4H48l-0.5-6.5h5.7L52.7,74.4z M53.4,65.9h-6  l-0.5-6.5h7.1L53.4,65.9z M54.1,57.4h-7.4l-0.5-6.5h8.4L54.1,57.4z M54.7,48.9H46l-0.3-3.8l-0.2-2.7h9.7L54.7,48.9z M50.4,33.3  c1.6,0,3.2,0.6,4.2,1.8c0.8,0.9,1.2,2,1,3.2l-0.2,2.2h-10l-0.2-2.3c-0.1-1.1,0.2-2.2,1-3.1C47.2,33.9,48.8,33.3,50.4,33.3z" fill="#fff"/></svg>
