<svg xmlns="http://www.w3.org/2000/svg" xmlns:xlink="http://www.w3.org/1999/xlink" version="1.1" x="0px" y="0px" viewBox="-25 -25 150 150" style="enable-background:new 0 0 100 100;" xml:space="preserve"><style type="text/css">
	.st0{display:none;}
	.st1{display:inline;opacity:0.17;}
	.st2{display:inline;fill:none;stroke:#39374A;stroke-linecap:round;stroke-linejoin:round;stroke-miterlimit:10;}
	.st3{display:inline;fill:#39374A;}
	.st4{display:inline;fill:none;stroke:#39374A;stroke-miterlimit:10;}

	.st5{display:inline;fill:none;stroke:#39374A;stroke-width:0.9646;stroke-linecap:round;stroke-linejoin:round;stroke-miterlimit:10;}
	.st6{fill:none;stroke:#fff;stroke-width:3;stroke-linecap:round;stroke-linejoin:round;stroke-miterlimit:10;}
</style>
<rect x="-25" y="-25" width="150" height="150" fill="#f39c12"/>
<g class="st0"><rect x="42.6" y="45.2" class="st2" width="28.6" height="15.3"/><line class="st2" x1="42.6" y1="58.9" x2="71.2" y2="58.9"/><line class="st2" x1="62.8" y1="57" x2="73.7" y2="57"/><line class="st2" x1="58.9" y1="57" x2="60.8" y2="57"/><line class="st2" x1="66.4" y1="54.8" x2="68.2" y2="54.8"/><line class="st2" x1="70.1" y1="54.8" x2="74.8" y2="54.8"/><circle class="st2" cx="46.8" cy="63" r="2.3"/><circle class="st3" cx="46.8" cy="63" r="1.1"/><circle class="st2" cx="35.1" cy="63" r="2.3"/><circle class="st3" cx="35.1" cy="63" r="1.1"/><circle class="st3" cx="52.7" cy="63" r="1.1"/><circle class="st3" cx="61.4" cy="63" r="1.1"/><circle class="st3" cx="67.2" cy="63" r="1.1"/><circle class="st2" cx="52.7" cy="63" r="2.3"/><circle class="st2" cx="61.4" cy="63" r="2.3"/><circle class="st2" cx="67.2" cy="63" r="2.3"/><line class="st2" x1="50.4" y1="63" x2="49.1" y2="63"/><line class="st4" x1="63.7" y1="63" x2="65.2" y2="63"/><line class="st2" x1="69.5" y1="63" x2="72.4" y2="63"/><line class="st2" x1="71.2" y1="60.6" x2="71.2" y2="63"/><line class="st2" x1="44.6" y1="63.3" x2="40.7" y2="63.3"/><line class="st2" x1="44.9" y1="61.8" x2="40.7" y2="61.8"/><line class="st2" x1="40.7" y1="63.3" x2="40.7" y2="42.9"/><line class="st2" x1="40.7" y1="42.9" x2="42.4" y2="42.9"/><line class="st2" x1="40.4" y1="48.4" x2="30.6" y2="48.4"/><line class="st2" x1="30.6" y1="48.4" x2="30.6" y2="56.1"/><polyline class="st2" points="25.9,59.7 25.9,56.4 25.9,56.1 30.6,56.1 32.8,56.1 32.8,50 30.6,50  "/><path class="st2" d="M42.4,63.3h-3.2V63c0-2.2-1.8-4-4-4s-4,1.8-4,4v0.3h-4.9h-0.3v-1.1"/><rect x="34.7" y="50" class="st2" width="3.6" height="6.1"/><rect x="24.7" y="60.1" class="st2" width="2.5" height="1.8"/><path class="st2" d="M33.2,48.4L33.2,48.4c0-1.6,1.3-2.9,2.9-2.9h0.1h4.5"/><line class="st5" x1="54.9" y1="41.4" x2="56.2" y2="41.4"/><path class="st3" d="M53.7,41h-2.8c-0.3,0-0.5-0.2-0.5-0.5s0.2-0.5,0.5-0.5h2.8c0.2-0.1,0.4-0.2,0.4-0.5   c0-0.3-0.2-0.5-0.5-0.5h-7.6c-0.3,0-0.5,0.2-0.5,0.5c0,0.2,0.2,0.4,0.4,0.5h0.6c0.3,0,0.5,0.2,0.5,0.5S46.7,41,46.5,41l-0.6,0   c0,0,0,0,0,0c-0.2,0-0.4,0.2-0.4,0.5c0,0.2,0.1,0.4,0.3,0.4h1.5c0.3,0,0.5,0.2,0.5,0.5s-0.2,0.5-0.5,0.5h-2.7c0,0,0,0,0,0   c-0.3,0-0.5,0.2-0.5,0.5s0.2,0.5,0.5,0.5h8.1c0.3,0,0.5-0.2,0.5-0.5c0-0.2-0.1-0.4-0.3-0.5h-2.1c-0.3,0-0.5-0.2-0.5-0.5   s0.2-0.5,0.5-0.5h2.1c0,0,0,0,0,0h0.7c0.3,0,0.5-0.2,0.5-0.5C54,41.2,53.9,41.1,53.7,41z"/></g><g><path class="st6" d="M29.6,54.6c0-13.1,9.8-33.1,21.8-33.1s21.8,20,21.8,33.1s-9.8,23.7-21.8,23.7   S29.6,67.7,29.6,54.6z"/></g></svg>
