<svg xmlns="http://www.w3.org/2000/svg" xmlns:xlink="http://www.w3.org/1999/xlink" viewBox="-16.75 -16.75 57.5 57.5" version="1.1" x="0px" y="0px">
	<rect x="-16.75" y="-16.75" width="57.5" height="57.5" fill="#27ae60"/>
	<g stroke="none" stroke-width="1" fill="none" fill-rule="evenodd"><g fill="#fff"><path d="M14.0616,5.9827 L15.1686,2.2387 L17.2186,2.8427 L16.1796,6.1357 C15.3146,6.3267 14.5016,6.5757 13.7286,6.8937 C13.8476,6.5927 13.9696,6.2937 14.0616,5.9827 M23.2746,7.6227 L22.7556,6.0507 C22.4706,5.1957 21.5686,4.7037 20.6816,4.9347 L18.4646,5.5417 L19.2076,3.1877 C19.3506,2.7497 19.3106,2.2637 19.0956,1.8557 C18.8786,1.4407 18.5106,1.1397 18.0626,1.0067 L15.4616,0.2397 C15.0226,0.1097 14.5596,0.1587 14.1566,0.3777 C13.7536,0.5967 13.4606,0.9597 13.3326,1.3977 L12.1436,5.4147 C11.7186,6.8497 10.9346,8.1677 9.8776,9.2257 L5.8316,13.2727 C4.6096,14.4947 3.2906,15.7737 1.8006,16.7987 C1.6666,16.8917 1.5356,16.9997 1.4026,17.1287 C0.2536,18.2517 0.0346,20.0407 0.8796,21.3817 C1.4486,22.2847 2.3736,22.8687 3.4156,22.9857 C3.5456,23.0007 3.6746,23.0077 3.8036,23.0077 C4.7086,23.0077 5.5746,22.6517 6.2266,21.9997 C6.3716,21.8537 6.4916,21.7077 6.5926,21.5577 C7.5556,20.1357 8.8086,18.8447 9.9076,17.7457 L14.0966,13.5567 C15.1876,12.4657 16.5496,11.6697 18.0366,11.2537 L21.9186,10.1687 C22.4406,10.0227 22.8866,9.6637 23.1416,9.1857 C23.3966,8.7067 23.4446,8.1377 23.2746,7.6227"/></g></g>
</svg>
