<svg xmlns="http://www.w3.org/2000/svg" xmlns:xlink="http://www.w3.org/1999/xlink" version="1.1" x="0px" y="0px" viewBox="-25 -25 150 150" enable-background="new 0 0 100 100" xml:space="preserve">
	<rect x="-25" y="-25" width="150" height="150" fill="#e74c3c"/>
	<g fill="#fff">
		<ellipse cx="50" cy="39.9" rx="1" ry="2.6"/>
		<ellipse cx="50" cy="28.9" rx="1" ry="2.6"/>
		<ellipse transform="matrix(-0.7072 0.707 -0.707 -0.7072 84.3862 40.0791)" cx="33.9" cy="37.5" rx="2.6" ry="1"/>
		<ellipse transform="matrix(0.7071 0.7071 -0.7071 0.7071 31.8077 -18.9997)" cx="38.8" cy="28.9" rx="1" ry="2.6"/>
		<ellipse transform="matrix(0.7071 0.7071 -0.7071 0.7071 46.0942 -36.5779)" cx="67.2" cy="37.4" rx="2.6" ry="1"/>
		<ellipse transform="matrix(0.707 0.7072 -0.7072 0.707 37.613 -33.0033)" cx="58.6" cy="28.9" rx="2.6" ry="1"/>
		<ellipse transform="matrix(0.3759 0.9267 -0.9267 0.3759 67.6358 -31.6647)" cx="57.3" cy="34.4" rx="2.6" ry="1"/>
		<ellipse transform="matrix(-0.6199 0.7847 -0.7847 -0.6199 136.5799 -3.5383)" cx="69.1" cy="31.3" rx="1" ry="2.6"/>
		<ellipse transform="matrix(0.6197 0.7849 -0.7849 0.6197 36.2863 -12.2566)" cx="30.8" cy="31.3" rx="1" ry="2.6"/>
		<ellipse transform="matrix(-0.376 0.9266 -0.9266 -0.376 89.7863 8.294)" cx="42.1" cy="34.4" rx="2.6" ry="1"/>
		<path d="M78.2,51.6c-2.2,0-4.1,0.7-5.9,1.3c-1.8,0.6-3.4,1.1-5.1,1.1c-1.2,0-2.5-0.3-4-1c-4.1-2.1-8.3-3.2-12.5-3.2     c-4.2,0-8.3,1.1-12.5,3.2c-1.4,0.7-2.5,0.9-3.6,0.9c-1.7,0-3.2-0.6-5.1-1.3c-1.8-0.7-3.9-1.5-6.4-1.5c-2,0-4.3,0.5-6.9,1.9l1,2     c2.3-1.2,4.2-1.6,5.8-1.6c2,0,3.8,0.6,5.6,1.3c1.8,0.7,3.7,1.5,5.9,1.5c1.4,0,3-0.3,4.6-1.2C43.2,53,47,52,50.8,52     c3.8,0,7.6,1,11.4,2.9c1.8,0.9,3.4,1.3,5,1.3c2.2,0,4.1-0.7,5.8-1.3c1.8-0.6,3.4-1.1,5.2-1.1c1.3,0,2.7,0.3,4.3,1.1l1-2     C81.7,52,79.9,51.6,78.2,51.6z"/><path d="M78.5,57.8H21.5c-2.2,0-4.1,1.8-4.1,4.1c0,2.2,1.8,4.1,4.1,4.1h57.1c2.2,0,4.1-1.8,4.1-4.1     C82.6,59.6,80.8,57.8,78.5,57.8z"/><path d="M81.3,68.2H18.7c-3.1,0-5.6,2.5-5.6,5.6c0,3.1,2.5,5.6,5.6,5.6h62.7c3.1,0,5.6-2.5,5.6-5.6C87,70.7,84.4,68.2,81.3,68.2z      M81.3,77.1H18.7c-1.8,0-3.3-1.5-3.3-3.3c0-1.8,1.5-3.3,3.3-3.3h62.7c1.8,0,3.3,1.5,3.3,3.3C84.7,75.6,83.2,77.1,81.3,77.1z"/><path d="M20.4,47.9h59.2c3,0,5.4-2.4,5.4-5.4V40c0-2.7-1.1-5.2-2.9-7.4c-2.8-3.3-7.2-6-12.8-7.9c-5.5-1.9-12.2-3-19.3-3     c-9.5,0-18.1,2-24.4,5.2c-3.2,1.6-5.8,3.5-7.6,5.8C16.1,34.7,15,37.3,15,40v2.5C15,45.5,17.4,47.9,20.4,47.9z M17.3,40     c0-2.1,0.8-4.1,2.4-6c2.4-2.9,6.5-5.4,11.7-7.2c5.3-1.8,11.7-2.9,18.5-2.9c9.2,0,17.5,1.9,23.4,4.9c3,1.5,5.3,3.3,6.9,5.2     c1.6,1.9,2.4,3.9,2.4,6v2.5c0,1.7-1.4,3.1-3.1,3.1H20.4c-1.7,0-3.1-1.4-3.1-3.1V40z"/>
	</g>
</svg>
