<svg xmlns="http://www.w3.org/2000/svg" xmlns:xlink="http://www.w3.org/1999/xlink" version="1.1" x="0px" y="0px" viewBox="-27.5 -27.5 150 150" style="enable-background:new 0 0 95 95;" xml:space="preserve"><style type="text/css">
	.st0{fill:#fff;}
</style>
<rect x="-27.5" y="-27.5" width="150" height="150" fill="#e74c3c"/>
<path class="st0" d="M92,42.4L92,42.4c-1.9-7.5-21.1-10.9-31.8-12.8C59,29.4,57.8,29.1,57,29c-2.2-0.4-5.5-2-9.4-3.8  c-9.9-4.6-23.5-10.8-33.8-6.5c-5,2.1-8.7,6.5-11,13.1c-0.3,0.9-0.6,1.9-0.6,2.9l0,0C2,35.5-1.5,53.8,8,61.2c3.4,2.7,21,9.1,47.6,9.1  c9.7,0,19.3-0.8,28.9-2.5l0.3-0.1c3.3-0.5,6.2-2.4,7.9-5.3C95.1,58.1,94.9,51.3,92,42.4z M4.6,32.5c2.2-6.1,5.5-10.1,10-12  c2.2-0.9,4.6-1.4,7.1-1.3c8.3,0,17.8,4.4,25.2,7.8c4,1.9,7.5,3.5,9.9,3.9c0.9,0.2,2,0.4,3.3,0.6C68.4,33,90.9,37,90.2,43.9  c-0.2,1.9-1.1,3.6-2.7,4.8c-5.7,4.7-20.8,5.8-43.5,3.4c-22.5-2.5-35.2-6.6-39-12.6C3.8,37.3,3.6,34.7,4.6,32.5z M90.9,61.5  c-1.5,2.4-3.9,3.9-6.6,4.3L84,65.9c-41.1,6.9-70.7-3-74.9-6.3C3.5,55.2,3,46,3.4,40.2l0.1,0.2c4.2,6.6,17,10.9,40.4,13.5  c7,0.8,14,1.3,21,1.3c11.8,0,19.8-1.7,23.9-5.1c1.1-0.9,1.9-1.9,2.5-3.2C92.9,53.4,92.8,58.3,90.9,61.5z"></path><path class="st0" d="M54.8,32.2C46.2,30.5,16.6,8.5,8,32.6C3.9,44,26.4,48.5,44,50.5s40.7,3.1,41.6-6.8  C86.2,36.4,61.1,33.5,54.8,32.2z M24.7,32.9c-4.3,0.4-7.9-0.8-8.1-2.6s3.2-3.6,7.5-4s7.9,0.8,8.1,2.6S29,32.5,24.7,32.9L24.7,32.9z"></path></svg>
