<svg xmlns="http://www.w3.org/2000/svg" xmlns:xlink="http://www.w3.org/1999/xlink" version="1.1" x="0px" y="0px" viewBox="-25 -25 150 150" style="enable-background:new 0 0 100 100;" xml:space="preserve">
	<rect x="-25" y="-25" width="150" height="150" fill="#e67e22"/>
	<path fill="#fff" d="M61.4,25c-5-1.7-8.6-5.3-9.6-9.6l-0.3-1.4c-0.2-0.8-0.9-1.4-1.9-1.4c-1,0-1.7,0.5-2,1.4l-0.5,1.7c-1.2,4.2-4.8,7.6-9.7,9.2  C24.8,29,16.2,39.7,16.2,51.4c0,7.1,3,13.9,8.6,19.2c5.3,5,12.3,8.1,19.8,9l-3.8,1.6c-0.5,0.2-0.7,0.8-0.5,1.3  c0.2,0.4,0.5,0.6,0.9,0.6c0.1,0,0.3,0,0.4-0.1l4.2-1.8l-2.4,4.4c-0.3,0.5-0.1,1.1,0.4,1.4c0.2,0.1,0.3,0.1,0.5,0.1  c0.4,0,0.7-0.2,0.9-0.5l2.9-5.4v6.3c0,0.6,0.4,1,1,1s1-0.4,1-1v-6.3l2.9,5.4c0.2,0.3,0.5,0.5,0.9,0.5c0.2,0,0.3,0,0.5-0.1  c0.5-0.3,0.7-0.9,0.4-1.4l-2.4-4.4l4.2,1.8c0.1,0.1,0.3,0.1,0.4,0.1c0.4,0,0.8-0.2,0.9-0.6c0.2-0.5,0-1.1-0.5-1.3l-3.8-1.6  c15-1.8,27-12.5,28.3-25.6C83.2,41.3,75,29.7,61.4,25z M80,53.7C78.7,66.6,66.3,77,51.2,77.8c-9.5,0.5-18.6-2.7-25-8.7  c-5.1-4.9-8-11.1-8-17.7c0-10.9,8-20.8,19.9-24.7c5.5-1.8,9.7-5.8,11-10.6l0.4-1.6c0,0,0,0,0,0l0.3,1.3c1.1,5,5.2,9.1,10.9,11.1  C73.4,31.3,81.1,42.1,80,53.7z"/><path fill="#fff" d="M50.5,71.4c-7.1,0.4-13.9-2-18.7-6.5c-3.8-3.6-5.9-8.3-5.9-13.2c0-8.1,6-15.5,14.9-18.4c3.6-1.2,7.9-3.1,9-7.2  c0.1-0.5-0.2-1.1-0.7-1.2c-0.5-0.1-1.1,0.2-1.2,0.7c-0.7,2.5-3,4.3-7.7,5.8c-9.7,3.2-16.2,11.3-16.2,20.3c0,5.4,2.3,10.6,6.6,14.6  c4.8,4.5,11.5,7.1,18.6,7.1c0.5,0,1.1,0,1.6,0c0.6,0,1-0.5,0.9-1.1C51.5,71.8,51.1,71.4,50.5,71.4z"/>
</svg>
