<svg xmlns="http://www.w3.org/2000/svg" xmlns:xlink="http://www.w3.org/1999/xlink" version="1.1" x="0px" y="0px" viewBox="-25 -25 150 150" enable-background="new 0 0 100 100" xml:space="preserve">
	<rect x="-25" y="-25" width="150" height="150" fill="#f39c12"/>
	<path fill="#fff" d="M81.7,32.5C75.9,26.1,66.9,22,56.9,22c-1.9,0-3.7,0.2-5.5,0.4c-3.9-1.2-8-1.9-12.4-1.9c-19.4,0-35.1,12.8-35.1,28.5  S19.6,77.6,39,77.6c3.2,0,6.4-0.4,9.3-1.1c2.7,0.7,5.6,1.1,8.5,1.1c2.5,0,4.9-0.3,7.2-0.8c3,1.7,6.4,2.7,10,2.7  c12.1,0,22-10.9,22-24.2C96.1,44.8,90.1,35.9,81.7,32.5z M74.1,76.4c-2.9,0-5.8-0.8-8.5-2.3l-1-0.6l-1.1,0.2  c-2.2,0.5-4.5,0.7-6.6,0.7c-2.6,0-5.2-0.3-7.8-1l-0.7-0.2l-0.7,0.2c-2.9,0.6-5.8,1-8.7,1c-17.7,0-32-11.4-32-25.5  c0-14,14.4-25.5,32-25.5c3.9,0,7.8,0.6,11.5,1.7l0.7,0.2l0.7-0.1c1.8-0.3,3.4-0.4,5-0.4c8.8,0,17,3.5,22.5,9.5l0.5,0.5l0.6,0.3  c7.5,3,12.5,11,12.5,19.9C93,66.9,84.5,76.4,74.1,76.4z"/>
	<ellipse fill="#fff" cx="28.7" cy="32.5" rx="2.1" ry="1.3"/>
	<ellipse fill="#fff" cx="37" cy="31.8" rx="2.1" ry="1.3"/>
	<ellipse fill="#fff" cx="25.8" cy="47.4" rx="2.1" ry="1.3"/>
	<ellipse fill="#fff" cx="20.8" cy="61.3" rx="2.1" ry="1.3"/>
	<ellipse fill="#fff" cx="71.9" cy="64.7" rx="2.1" ry="1.3"/>
	<ellipse fill="#fff" cx="78.4" cy="41.3" rx="2.1" ry="1.3"/>
	<ellipse fill="#fff" cx="67.8" cy="42.6" rx="2.1" ry="1.3"/>
	<ellipse fill="#fff" cx="60.3" cy="56.7" rx="2.1" ry="1.3"/>
	<ellipse fill="#fff" cx="58.2" cy="35.1" rx="2.1" ry="1.3"/>
	<ellipse fill="#fff" cx="37" cy="67.4" rx="2.1" ry="1.3"/>
	<ellipse fill="#fff" cx="84" cy="54.1" rx="2.1" ry="1.3"/>
	<ellipse fill="#fff" cx="15.9" cy="52.8" rx="2.1" ry="1.3"/>
</svg>
