<?xml version="1.0" standalone="no"?>
<!DOCTYPE svg PUBLIC "-//W3C//DTD SVG 20010904//EN"
 "http://www.w3.org/TR/2001/REC-SVG-20010904/DTD/svg10.dtd">
<svg version="1.0" xmlns="http://www.w3.org/2000/svg"
 width="16.000000pt" height="16.000000pt" viewBox="0 0 16.000000 16.000000"
 preserveAspectRatio="xMidYMid meet">
<metadata>
Created by potrace 1.11, written by Peter Selinger 2001-2013
</metadata>
<g transform="translate(0.000000,16.000000) scale(0.000444,-0.000444)"
fill="#000000" stroke="none">
<path d="M27661 31291 c-5 -4 -44 -6 -85 -4 -42 1 -76 -2 -76 -6 0 -4 -29 -6
-65 -5 -36 2 -65 -1 -65 -5 0 -4 -22 -6 -50 -5 -27 2 -50 -1 -50 -4 0 -4 -18
-6 -40 -6 -22 1 -40 -1 -40 -5 0 -3 -17 -7 -37 -8 -96 -5 -113 -7 -113 -13 0
-3 -16 -4 -35 -2 -19 2 -35 0 -35 -6 0 -5 -13 -8 -30 -6 -16 2 -30 0 -30 -5 0
-4 -12 -7 -27 -5 -15 1 -32 0 -37 -4 -10 -6 -51 -12 -88 -13 -10 0 -18 -4 -18
-8 0 -4 -13 -6 -30 -5 -16 1 -30 -1 -30 -6 0 -4 -12 -5 -26 -2 -20 4 -25 2
-19 -8 5 -9 4 -11 -3 -6 -7 4 -18 4 -24 -1 -7 -4 -26 -6 -42 -4 -20 2 -26 -1
-21 -10 5 -7 4 -10 -3 -5 -13 8 -93 -4 -88 -13 2 -3 -8 -7 -22 -8 -33 -1 -73
-10 -106 -23 -13 -5 -27 -6 -30 -3 -3 4 -6 2 -6 -4 0 -6 -6 -11 -12 -10 -39 1
-69 -4 -64 -12 3 -4 -6 -6 -21 -3 -17 3 -24 1 -19 -6 4 -7 -2 -9 -18 -6 -14 2
-28 0 -31 -6 -4 -6 -10 -8 -15 -5 -5 3 -11 1 -15 -4 -3 -6 -13 -7 -22 -4 -12
5 -14 3 -8 -7 5 -8 4 -11 -2 -7 -6 4 -29 0 -51 -7 -22 -8 -43 -12 -46 -9 -3 4
-6 1 -6 -5 0 -6 -7 -9 -17 -5 -12 5 -14 3 -8 -7 5 -8 4 -11 -3 -6 -6 4 -26 0
-44 -7 -18 -8 -39 -12 -47 -9 -8 3 -11 0 -7 -6 4 -6 -2 -8 -16 -4 -13 3 -19 1
-15 -5 5 -7 -1 -9 -15 -5 -13 3 -19 1 -15 -6 4 -6 0 -9 -10 -7 -10 1 -24 -3
-32 -9 -8 -6 -16 -10 -18 -8 -9 6 -24 1 -19 -7 4 -5 -4 -7 -16 -3 -14 3 -19 1
-14 -6 4 -8 2 -10 -8 -6 -8 3 -21 2 -28 -2 -14 -9 -19 -11 -44 -13 -9 0 -12
-6 -8 -13 4 -6 3 -8 -4 -5 -5 4 -31 -2 -56 -13 -26 -11 -48 -20 -51 -20 -3 0
-10 0 -16 0 -5 0 -7 -5 -3 -11 4 -7 0 -9 -14 -5 -11 4 -23 2 -27 -4 -3 -6 -11
-8 -16 -5 -5 4 -9 1 -9 -4 0 -6 -3 -10 -7 -9 -16 3 -63 -15 -63 -24 0 -5 -4
-7 -9 -4 -12 8 -42 -4 -36 -14 3 -5 -5 -6 -17 -2 -16 4 -19 2 -13 -8 5 -9 4
-11 -4 -6 -6 4 -17 3 -24 -2 -7 -5 -29 -15 -50 -22 -21 -6 -34 -16 -31 -22 4
-6 -1 -8 -15 -3 -12 4 -21 2 -21 -4 0 -6 -3 -10 -7 -10 -19 3 -34 -2 -29 -9 3
-5 0 -9 -7 -10 -27 -2 -46 -9 -59 -20 -8 -6 -18 -9 -21 -5 -4 3 -7 1 -7 -5 0
-7 -3 -11 -7 -11 -5 1 -11 0 -15 -1 -13 -4 -27 -7 -39 -9 -5 0 -7 -5 -4 -11 4
-6 -1 -7 -11 -3 -13 5 -15 3 -9 -7 5 -8 4 -11 -3 -7 -15 10 -43 -3 -35 -17 3
-6 3 -8 -1 -4 -11 9 -67 -12 -60 -23 3 -5 -3 -6 -12 -2 -12 4 -15 3 -10 -5 5
-8 2 -10 -8 -6 -10 4 -16 1 -16 -7 0 -7 -3 -9 -7 -6 -3 4 -15 -1 -26 -10 -10
-10 -21 -17 -23 -15 -9 5 -25 1 -20 -6 2 -4 -5 -9 -16 -9 -12 -1 -24 -7 -28
-13 -4 -7 -10 -11 -14 -11 -20 3 -26 0 -21 -9 4 -6 -1 -7 -11 -3 -13 5 -15 3
-9 -7 5 -8 4 -11 -3 -7 -15 10 -43 -3 -35 -16 3 -5 2 -7 -3 -4 -14 8 -75 -24
-67 -36 3 -5 1 -7 -5 -3 -6 3 -13 2 -17 -4 -4 -6 -11 -8 -16 -5 -5 4 -9 1 -9
-5 0 -6 -4 -8 -10 -5 -5 3 -10 1 -10 -6 0 -7 -3 -9 -6 -6 -11 10 -45 -13 -38
-25 4 -6 3 -8 -4 -4 -13 8 -75 -28 -65 -38 4 -4 0 -4 -10 0 -10 3 -17 1 -17
-6 0 -6 -4 -9 -9 -6 -5 3 -21 -7 -37 -22 -15 -15 -24 -21 -20 -14 7 11 4 12
-13 2 -12 -6 -19 -16 -15 -22 4 -6 1 -9 -7 -6 -17 6 -69 -19 -69 -33 0 -6 -5
-7 -10 -4 -6 3 -13 -1 -16 -9 -3 -9 -9 -14 -14 -11 -4 2 -16 -3 -26 -11 -10
-9 -13 -12 -5 -8 9 5 12 3 7 -5 -4 -6 -11 -9 -15 -7 -12 8 -113 -59 -104 -69
4 -4 1 -6 -9 -2 -9 3 -24 -1 -35 -9 -10 -9 -12 -12 -4 -8 9 4 12 3 7 -4 -4 -6
-13 -9 -21 -5 -8 3 -15 0 -15 -6 0 -6 -7 -11 -15 -11 -7 0 -18 -7 -23 -16 -5
-9 -13 -16 -18 -16 -5 0 -8 -4 -6 -10 1 -5 -3 -6 -9 -2 -6 3 -14 3 -18 -2 -3
-5 -19 -17 -36 -26 -16 -10 -29 -22 -28 -27 2 -6 -4 -8 -12 -5 -8 4 -17 -1
-21 -10 -3 -9 -10 -13 -15 -10 -5 3 -9 1 -9 -4 0 -5 -11 -15 -25 -22 -13 -7
-22 -18 -18 -23 4 -6 1 -7 -6 -3 -7 5 -18 0 -26 -10 -8 -11 -15 -15 -15 -11 0
4 -6 2 -14 -5 -8 -7 -11 -17 -8 -22 3 -5 0 -6 -6 -2 -14 9 -57 -19 -57 -37 0
-6 -9 -12 -20 -12 -11 0 -19 -6 -17 -13 1 -8 -1 -11 -6 -8 -13 8 -53 -24 -46
-36 4 -7 2 -8 -4 -4 -7 4 -24 -5 -39 -21 -14 -15 -22 -21 -18 -13 8 13 6 13
-8 1 -9 -7 -15 -17 -12 -21 3 -4 -3 -7 -13 -6 -9 0 -16 -5 -14 -12 1 -8 -1
-11 -6 -8 -12 7 -54 -23 -46 -35 3 -5 2 -8 -3 -7 -14 4 -63 -34 -56 -45 3 -6
1 -7 -6 -3 -13 8 -44 -18 -33 -29 4 -4 2 -6 -3 -5 -21 5 -36 0 -30 -10 3 -5
-1 -10 -9 -10 -8 0 -19 -8 -25 -17 -5 -10 -13 -18 -18 -18 -4 0 -7 -3 -6 -7 2
-5 -3 -7 -10 -5 -6 1 -11 -4 -10 -10 2 -7 -3 -13 -10 -13 -18 0 -63 -39 -59
-52 1 -5 -2 -6 -8 -3 -14 9 -62 -34 -53 -48 3 -6 1 -7 -6 -3 -7 5 -29 -10 -57
-38 -24 -25 -48 -47 -52 -48 -4 -2 -6 -7 -4 -11 1 -5 -2 -6 -7 -3 -11 7 -33
-19 -23 -28 4 -4 0 -6 -8 -4 -8 2 -14 -3 -12 -10 1 -8 -2 -11 -8 -7 -5 3 -10
1 -10 -6 0 -7 -3 -10 -6 -7 -7 8 -50 -34 -47 -44 2 -5 -1 -7 -6 -5 -5 1 -24
-14 -42 -33 -19 -19 -36 -35 -39 -35 -13 0 -58 -53 -52 -61 4 -4 2 -4 -5 0
-12 6 -28 -10 -28 -29 0 -5 -7 -10 -15 -10 -8 -1 -14 -6 -13 -13 2 -7 -1 -11
-5 -9 -12 3 -68 -56 -64 -68 2 -5 1 -7 -3 -3 -10 9 -45 -24 -38 -35 3 -6 2 -7
-4 -4 -13 8 -74 -58 -65 -69 4 -4 2 -4 -5 0 -12 6 -28 -10 -28 -29 0 -5 -7
-10 -15 -10 -8 -1 -14 -7 -12 -14 1 -7 -1 -10 -6 -7 -11 6 -43 -30 -34 -39 4
-4 2 -5 -4 -3 -14 4 -64 -52 -64 -71 0 -8 -3 -12 -6 -9 -7 8 -50 -34 -47 -44
2 -5 0 -7 -5 -5 -11 3 -52 -41 -52 -58 0 -8 -6 -14 -12 -12 -7 1 -12 -4 -10
-11 1 -8 -1 -11 -6 -8 -9 5 -30 -15 -62 -58 -12 -16 -13 -18 -1 -11 10 5 12 4
7 -3 -4 -7 -11 -12 -16 -12 -18 0 -48 -33 -43 -47 3 -8 1 -13 -4 -11 -14 5
-65 -51 -58 -62 4 -6 3 -9 -2 -8 -15 5 -65 -50 -57 -64 4 -7 3 -10 -1 -5 -9 8
-45 -20 -45 -36 0 -5 -9 -18 -21 -28 -12 -10 -18 -23 -13 -30 4 -7 3 -9 -3 -6
-10 6 -43 -26 -43 -43 0 -5 -9 -14 -21 -20 -12 -7 -18 -18 -15 -26 3 -8 2 -13
-2 -11 -4 3 -16 -5 -27 -16 -11 -11 -13 -17 -5 -12 8 4 2 -5 -15 -20 -16 -14
-23 -23 -15 -19 8 4 0 -7 -18 -25 -17 -18 -30 -37 -26 -42 3 -5 0 -8 -8 -7 -7
2 -12 -5 -12 -14 1 -10 -2 -16 -6 -15 -4 1 -9 -2 -10 -8 -2 -5 -11 -16 -21
-23 -11 -7 -27 -28 -36 -45 -9 -18 -23 -37 -32 -44 -9 -7 -12 -13 -6 -13 5 0
-1 -7 -13 -16 -12 -8 -22 -22 -22 -30 0 -8 -5 -14 -11 -14 -6 0 -9 -7 -5 -15
3 -8 0 -14 -7 -12 -7 1 -11 -4 -9 -10 1 -7 -3 -13 -9 -13 -5 0 -7 -5 -3 -12 5
-7 3 -8 -5 -4 -8 5 -14 0 -18 -13 -3 -12 -10 -21 -15 -21 -6 0 -7 -7 -4 -16 3
-8 2 -13 -3 -10 -5 3 -17 -6 -26 -20 -12 -18 -13 -24 -4 -19 8 3 5 -1 -6 -10
-11 -9 -19 -23 -17 -31 2 -8 -3 -13 -10 -12 -7 2 -12 -5 -12 -14 1 -10 -3 -16
-10 -15 -6 1 -10 -4 -8 -10 1 -7 -2 -13 -7 -13 -11 0 -42 -47 -45 -67 -1 -8
-8 -18 -15 -23 -8 -4 -10 -13 -6 -21 5 -8 5 -11 0 -7 -11 10 -38 -29 -30 -42
4 -6 2 -9 -3 -8 -6 2 -9 0 -8 -4 0 -4 -8 -13 -18 -21 -12 -9 -16 -19 -11 -27
5 -8 4 -11 -2 -7 -10 6 -40 -50 -35 -66 1 -4 -4 -6 -10 -5 -7 2 -12 -3 -10 -9
1 -7 -2 -13 -8 -13 -5 0 -7 -6 -4 -14 3 -8 0 -17 -7 -22 -8 -4 -10 -3 -5 4 4
7 5 12 2 12 -11 0 -67 -111 -60 -121 5 -8 3 -9 -6 -4 -10 6 -12 4 -7 -9 4 -10
3 -15 -3 -11 -12 7 -31 -35 -22 -49 3 -5 0 -6 -6 -2 -6 3 -27 -26 -51 -74 -22
-44 -37 -80 -34 -80 4 0 -1 -6 -12 -13 -11 -9 -15 -19 -10 -27 5 -9 4 -11 -3
-6 -11 6 -16 -6 -13 -26 0 -5 -3 -8 -8 -8 -5 0 -12 -12 -15 -26 -4 -15 -14
-33 -22 -41 -8 -8 -12 -19 -9 -24 4 -5 1 -9 -5 -9 -7 0 -9 -7 -6 -16 3 -8 2
-13 -3 -10 -8 5 -25 -29 -22 -46 1 -5 -4 -8 -10 -8 -6 0 -8 -7 -5 -16 4 -10 2
-13 -6 -8 -8 5 -9 2 -5 -10 4 -9 3 -15 -2 -12 -11 7 -42 -74 -34 -87 4 -6 1
-7 -7 -2 -10 6 -12 4 -7 -9 5 -11 3 -15 -5 -10 -8 5 -9 2 -5 -10 4 -9 3 -14
-2 -11 -10 6 -26 -32 -23 -52 2 -7 -2 -13 -8 -13 -6 0 -8 -4 -5 -10 3 -5 1
-10 -4 -10 -6 0 -11 -6 -11 -13 0 -7 -9 -29 -20 -50 -11 -20 -18 -37 -16 -37
3 0 -8 -26 -24 -57 -16 -31 -27 -60 -24 -65 3 -4 1 -8 -5 -8 -5 0 -8 -9 -6
-20 2 -11 0 -18 -5 -15 -11 7 -23 -32 -14 -46 4 -8 3 -9 -4 -5 -7 4 -14 -4
-18 -21 -4 -15 -11 -34 -16 -40 -6 -7 -8 -20 -4 -28 4 -11 2 -14 -6 -9 -7 5
-9 0 -6 -14 4 -12 3 -20 -2 -17 -10 6 -22 -24 -14 -36 3 -5 0 -9 -5 -9 -6 0
-10 -3 -9 -7 1 -5 -4 -19 -11 -32 -11 -19 -11 -22 1 -15 8 4 7 0 -3 -12 -9
-10 -15 -27 -14 -37 2 -10 -1 -14 -7 -10 -7 4 -9 -2 -5 -16 3 -13 3 -20 0 -17
-8 8 -34 -65 -27 -76 3 -4 0 -8 -7 -8 -6 0 -9 -8 -6 -20 3 -13 1 -18 -6 -13
-6 4 -8 -2 -5 -15 4 -14 2 -20 -5 -15 -6 4 -8 0 -4 -10 4 -10 2 -17 -4 -17 -6
0 -9 -7 -5 -15 3 -8 1 -15 -4 -15 -6 0 -9 -3 -8 -7 0 -5 -1 -15 -5 -23 -19
-50 -25 -83 -20 -97 5 -12 3 -14 -7 -8 -10 6 -12 3 -8 -13 4 -14 2 -20 -5 -15
-6 4 -8 0 -4 -10 3 -9 2 -19 -4 -23 -6 -3 -8 -12 -5 -20 3 -8 0 -14 -5 -14 -7
0 -9 -11 -7 -25 3 -15 1 -22 -5 -18 -6 4 -8 -2 -5 -15 4 -14 2 -20 -4 -16 -6
4 -8 1 -6 -7 3 -8 1 -22 -4 -32 -9 -18 -19 -65 -22 -104 0 -11 -5 -19 -9 -16
-4 2 -6 -7 -3 -21 3 -17 1 -24 -6 -20 -7 5 -9 -2 -6 -19 3 -15 1 -24 -4 -21
-5 3 -7 -6 -4 -20 3 -17 1 -24 -6 -20 -7 5 -9 -4 -6 -24 3 -18 0 -29 -5 -25
-6 4 -8 -5 -5 -20 3 -16 1 -24 -5 -20 -6 4 -8 -4 -5 -21 3 -14 2 -26 -3 -26
-4 0 -8 -8 -8 -17 -2 -63 -7 -91 -15 -86 -5 4 -6 -7 -3 -26 5 -23 3 -30 -5
-25 -7 5 -9 -1 -6 -20 3 -14 1 -26 -3 -26 -5 0 -7 -13 -5 -30 2 -16 0 -30 -4
-30 -6 0 -10 -26 -13 -92 -1 -16 -4 -28 -8 -28 -4 0 -6 -18 -5 -40 2 -21 -1
-37 -6 -34 -5 3 -7 -11 -5 -30 2 -20 1 -36 -4 -36 -4 0 -8 -17 -8 -37 0 -21
-3 -60 -7 -88 -4 -27 -7 -71 -8 -97 0 -27 -4 -48 -8 -48 -3 0 -7 -26 -7 -57
-1 -32 -4 -98 -7 -148 -8 -130 -12 -685 -5 -681 3 2 5 -34 4 -80 -1 -47 1 -82
5 -80 4 3 7 -22 6 -55 -1 -32 1 -57 5 -55 3 2 5 -20 5 -50 -1 -30 1 -52 5 -50
3 3 6 -14 5 -37 -1 -23 1 -46 4 -52 4 -5 7 -21 8 -35 1 -14 3 -42 5 -62 1 -21
5 -36 8 -34 3 2 7 -12 8 -32 1 -21 4 -50 7 -67 4 -16 8 -43 10 -60 2 -16 5
-32 6 -35 1 -3 2 -12 1 -22 -1 -9 2 -19 8 -22 5 -3 7 -16 3 -28 -3 -13 -1 -19
5 -15 7 5 9 0 6 -13 -3 -11 -1 -20 5 -20 5 0 8 -13 6 -30 -2 -16 0 -30 4 -30
5 0 9 -8 9 -17 -1 -47 4 -74 11 -69 4 3 9 -12 9 -32 1 -20 6 -38 11 -40 5 -1
7 -12 4 -24 -3 -12 -1 -19 4 -16 5 4 10 -4 10 -15 3 -30 9 -55 16 -63 4 -3 4
-13 1 -22 -5 -11 -3 -13 6 -7 10 5 11 2 7 -13 -4 -11 -2 -23 4 -27 6 -3 8 -11
4 -16 -3 -5 -1 -15 4 -22 6 -7 11 -15 11 -19 6 -39 15 -69 22 -74 5 -3 7 -10
4 -15 -4 -5 -3 -9 2 -9 4 0 9 -12 10 -26 0 -15 5 -29 10 -33 4 -3 8 -12 9 -18
2 -29 4 -34 13 -29 5 4 7 -4 3 -16 -3 -13 -1 -19 5 -15 6 4 10 -1 10 -11 0
-34 3 -43 12 -38 5 4 7 -4 3 -16 -4 -16 -2 -19 8 -13 9 5 11 4 6 -4 -9 -14 2
-53 14 -46 4 3 6 -3 3 -13 -2 -11 2 -26 11 -34 8 -9 12 -18 9 -22 -4 -3 -1 -6
5 -6 6 0 9 -7 5 -17 -5 -12 -3 -14 7 -8 8 5 11 4 7 -3 -9 -14 3 -43 14 -36 5
3 9 2 7 -3 -4 -18 14 -73 25 -73 7 0 -1 -12 -18 -26 -16 -14 -29 -30 -27 -35
1 -5 -1 -8 -5 -7 -11 3 -69 -53 -65 -63 1 -5 -2 -9 -8 -9 -15 0 -50 -33 -44
-42 3 -5 2 -7 -3 -6 -11 4 -79 -64 -75 -75 1 -4 -1 -6 -5 -5 -12 4 -53 -35
-47 -44 3 -5 1 -7 -4 -6 -11 4 -112 -96 -112 -111 0 -6 -4 -10 -9 -8 -10 3
-66 -55 -63 -65 1 -5 -2 -7 -6 -5 -10 3 -78 -65 -74 -75 1 -5 -1 -7 -6 -6 -11
4 -52 -35 -46 -44 3 -5 1 -7 -3 -6 -11 4 -99 -83 -96 -94 2 -4 0 -7 -5 -6 -11
4 -52 -35 -46 -44 3 -5 2 -7 -3 -6 -11 4 -79 -64 -75 -75 1 -5 -1 -6 -6 -3 -9
6 -42 -29 -42 -44 0 -6 -4 -9 -8 -7 -11 3 -108 -94 -104 -106 1 -4 -1 -6 -6
-3 -9 6 -42 -29 -42 -44 0 -6 -4 -9 -9 -7 -10 3 -66 -55 -63 -65 1 -5 -2 -7
-6 -5 -10 3 -78 -65 -74 -75 1 -5 -1 -7 -6 -6 -11 4 -52 -35 -46 -44 3 -5 1
-7 -3 -6 -11 4 -99 -83 -96 -94 2 -4 0 -7 -5 -6 -11 4 -52 -35 -46 -44 3 -5 2
-7 -3 -6 -11 4 -79 -64 -75 -75 1 -5 -1 -6 -6 -3 -9 6 -42 -29 -42 -44 0 -6
-4 -9 -8 -7 -11 3 -108 -94 -105 -105 2 -4 0 -7 -5 -6 -10 3 -108 -93 -105
-103 2 -5 -1 -8 -6 -6 -11 3 -117 -104 -114 -115 2 -4 -1 -8 -7 -8 -15 0 -50
-33 -44 -42 3 -5 2 -7 -3 -6 -11 4 -79 -64 -75 -74 1 -5 -1 -7 -6 -6 -11 4
-52 -35 -46 -44 3 -5 1 -7 -4 -6 -11 3 -107 -94 -104 -104 1 -5 -1 -7 -6 -6
-11 4 -52 -35 -46 -44 3 -5 1 -7 -4 -6 -11 4 -112 -96 -112 -111 0 -6 -4 -10
-9 -8 -10 3 -66 -55 -63 -65 1 -5 -2 -7 -6 -5 -10 3 -78 -65 -74 -75 1 -5 -1
-7 -6 -6 -11 4 -52 -35 -46 -44 3 -5 1 -7 -3 -6 -11 4 -99 -83 -96 -94 2 -4 0
-7 -5 -6 -11 4 -52 -35 -46 -44 3 -5 2 -7 -3 -6 -11 4 -79 -64 -75 -75 1 -5
-1 -6 -6 -3 -9 6 -42 -29 -42 -44 0 -6 -4 -9 -8 -7 -11 3 -108 -94 -105 -105
2 -4 0 -7 -5 -6 -10 3 -108 -93 -105 -103 2 -5 -1 -8 -6 -6 -11 3 -117 -104
-114 -115 2 -4 -1 -8 -7 -8 -15 0 -50 -33 -44 -42 3 -5 2 -7 -3 -6 -11 4 -79
-64 -75 -74 1 -5 -1 -7 -6 -6 -11 4 -52 -35 -46 -44 3 -5 1 -7 -4 -6 -11 3
-107 -94 -104 -104 1 -5 -1 -7 -6 -6 -11 4 -52 -35 -46 -44 3 -5 1 -7 -3 -6
-11 4 -99 -83 -96 -94 2 -4 0 -7 -5 -6 -11 4 -52 -35 -46 -44 3 -5 2 -7 -3 -6
-11 4 -79 -64 -75 -75 1 -5 -1 -6 -6 -3 -9 6 -42 -29 -42 -44 0 -6 -4 -9 -8
-7 -11 3 -118 -103 -115 -114 2 -5 -1 -8 -6 -6 -10 3 -106 -95 -103 -105 1 -5
-2 -7 -6 -5 -10 3 -78 -65 -74 -75 1 -5 -1 -7 -6 -6 -11 4 -52 -35 -46 -44 3
-5 1 -7 -4 -6 -11 4 -112 -96 -112 -111 0 -6 -4 -10 -9 -8 -10 3 -66 -55 -63
-65 1 -5 -2 -7 -6 -5 -10 3 -78 -65 -74 -75 1 -5 -1 -7 -6 -6 -11 4 -52 -35
-46 -44 3 -5 1 -7 -3 -6 -11 4 -99 -83 -96 -94 2 -4 0 -7 -5 -6 -11 4 -52 -35
-46 -44 3 -5 2 -7 -3 -6 -11 4 -79 -64 -75 -75 1 -5 -1 -6 -6 -3 -9 6 -42 -29
-42 -44 0 -6 -4 -9 -8 -7 -11 3 -138 -124 -135 -135 2 -4 0 -7 -5 -6 -11 4
-52 -35 -46 -44 3 -5 2 -7 -3 -6 -11 4 -79 -64 -75 -75 1 -5 -1 -6 -6 -3 -9 6
-42 -29 -42 -44 0 -6 -4 -9 -8 -7 -11 3 -118 -103 -115 -114 2 -5 -1 -8 -5 -6
-10 3 -178 -164 -175 -175 2 -4 0 -7 -5 -6 -11 4 -52 -35 -46 -44 3 -5 2 -7
-3 -6 -11 3 -109 -92 -106 -103 2 -5 0 -8 -5 -7 -11 4 -52 -35 -46 -44 3 -5 2
-7 -3 -6 -11 4 -79 -64 -75 -75 1 -5 -1 -6 -6 -3 -9 6 -42 -29 -42 -44 0 -6
-4 -9 -8 -7 -11 3 -118 -103 -115 -114 2 -5 -1 -8 -6 -6 -10 3 -106 -95 -103
-105 1 -5 -2 -7 -6 -5 -11 3 -108 -94 -105 -105 2 -4 -1 -8 -7 -8 -15 0 -50
-33 -44 -42 3 -5 2 -7 -3 -6 -11 4 -79 -64 -75 -74 1 -5 -1 -7 -6 -6 -11 4
-52 -35 -46 -44 3 -5 2 -7 -3 -6 -11 4 -99 -83 -96 -94 2 -4 0 -7 -5 -6 -11 4
-52 -35 -46 -44 3 -5 2 -7 -3 -6 -10 3 -79 -64 -76 -74 2 -4 0 -7 -5 -6 -10 3
-68 -53 -65 -63 2 -5 -1 -9 -7 -9 -15 0 -50 -33 -44 -42 3 -5 1 -7 -3 -6 -12
4 -109 -93 -106 -104 2 -4 -1 -8 -7 -8 -15 0 -50 -33 -44 -42 3 -5 2 -7 -3 -6
-11 4 -79 -64 -75 -74 1 -5 -1 -7 -6 -6 -11 4 -52 -35 -46 -44 3 -5 2 -7 -3
-6 -11 4 -99 -83 -96 -94 2 -4 0 -7 -5 -6 -11 4 -52 -35 -46 -44 3 -5 2 -7 -3
-6 -10 3 -79 -64 -76 -74 2 -4 0 -7 -5 -6 -10 3 -68 -53 -65 -63 2 -5 -2 -9
-8 -9 -14 0 -115 -101 -112 -112 2 -4 0 -7 -5 -6 -11 4 -52 -35 -46 -44 3 -5
2 -7 -3 -6 -11 3 -109 -92 -106 -103 2 -5 0 -8 -5 -7 -11 4 -52 -35 -46 -44 3
-5 2 -7 -3 -6 -11 4 -79 -64 -75 -75 1 -5 -1 -6 -6 -3 -9 6 -42 -29 -42 -44 0
-6 -4 -9 -8 -7 -11 3 -118 -103 -115 -114 2 -5 -1 -8 -6 -6 -10 3 -106 -95
-103 -105 1 -5 -2 -7 -6 -5 -11 3 -108 -94 -105 -105 2 -4 -1 -8 -7 -8 -15 0
-50 -33 -44 -42 3 -5 2 -7 -3 -6 -11 4 -79 -64 -75 -74 1 -5 -1 -7 -6 -6 -11
4 -52 -35 -46 -44 3 -5 2 -7 -3 -6 -11 4 -99 -83 -96 -94 2 -4 0 -7 -5 -6 -11
4 -52 -35 -46 -44 3 -5 2 -7 -3 -6 -10 3 -79 -64 -76 -74 2 -4 0 -7 -5 -6 -10
3 -68 -53 -65 -63 2 -5 -2 -9 -8 -9 -14 0 -115 -101 -112 -112 2 -4 0 -7 -5
-6 -11 4 -52 -35 -46 -44 3 -5 2 -7 -3 -6 -10 3 -79 -64 -76 -74 2 -4 0 -7 -5
-6 -10 3 -108 -93 -105 -103 2 -5 -1 -8 -6 -6 -11 3 -117 -104 -114 -115 2 -4
-1 -8 -7 -8 -15 0 -50 -33 -44 -42 3 -5 2 -7 -3 -6 -11 4 -79 -64 -75 -74 1
-5 -1 -7 -6 -6 -11 4 -52 -35 -46 -44 3 -5 2 -7 -3 -6 -11 4 -99 -83 -96 -94
2 -4 0 -7 -5 -6 -11 4 -52 -35 -46 -44 3 -5 2 -7 -3 -6 -11 3 -109 -92 -106
-103 2 -5 0 -8 -5 -7 -11 4 -52 -35 -46 -44 3 -5 2 -7 -3 -6 -11 4 -79 -64
-75 -75 1 -5 -1 -6 -6 -3 -9 6 -42 -29 -42 -44 0 -6 -4 -9 -8 -8 -11 4 -118
-102 -114 -113 1 -5 -2 -8 -7 -7 -10 4 -106 -94 -103 -105 1 -4 -2 -6 -6 -5
-11 4 -108 -93 -104 -104 1 -4 -2 -8 -8 -8 -15 0 -50 -33 -44 -42 3 -5 2 -7
-3 -6 -11 4 -79 -64 -75 -75 1 -5 -1 -6 -6 -3 -9 6 -48 -35 -44 -47 1 -4 -2
-6 -6 -5 -11 4 -98 -84 -94 -95 1 -4 -1 -6 -6 -3 -9 6 -48 -35 -44 -47 1 -4
-1 -6 -5 -5 -11 4 -79 -64 -75 -74 1 -4 -1 -7 -5 -6 -11 3 -69 -53 -65 -63 1
-5 -2 -9 -8 -9 -15 0 -50 -33 -44 -42 3 -5 2 -7 -3 -6 -11 4 -79 -64 -75 -75
1 -5 -1 -6 -6 -3 -9 6 -48 -35 -44 -47 1 -4 -2 -6 -6 -5 -11 4 -112 -97 -112
-111 0 -6 -4 -10 -9 -9 -10 4 -66 -54 -63 -65 1 -4 -2 -6 -6 -5 -10 4 -77 -65
-74 -75 1 -5 -1 -6 -6 -3 -9 6 -48 -35 -44 -47 1 -4 -2 -6 -6 -5 -11 4 -98
-84 -94 -95 1 -5 -1 -6 -6 -3 -9 6 -48 -35 -44 -47 1 -4 -1 -6 -5 -5 -11 4
-79 -64 -75 -75 1 -5 -1 -6 -6 -3 -9 6 -42 -29 -42 -44 0 -6 -4 -9 -8 -8 -11
4 -108 -93 -104 -105 1 -4 -1 -6 -6 -3 -9 6 -42 -29 -42 -44 0 -6 -4 -9 -9 -8
-10 4 -66 -54 -63 -65 1 -4 -2 -6 -6 -5 -10 4 -77 -65 -74 -75 1 -5 -1 -6 -6
-3 -9 6 -48 -35 -44 -47 1 -4 -2 -6 -6 -5 -11 4 -98 -84 -94 -95 1 -5 -1 -6
-6 -3 -9 6 -48 -35 -44 -47 1 -4 -1 -6 -5 -5 -11 4 -79 -64 -75 -75 1 -5 -1
-6 -6 -3 -9 6 -42 -29 -42 -44 0 -6 -4 -9 -8 -8 -11 4 -108 -93 -104 -104 1
-4 -1 -7 -5 -6 -11 3 -109 -93 -105 -103 1 -5 -2 -8 -7 -7 -11 4 -117 -103
-113 -114 1 -4 -2 -8 -8 -8 -15 0 -50 -33 -44 -42 3 -5 2 -7 -3 -6 -11 4 -79
-64 -75 -75 1 -5 -1 -6 -6 -3 -9 6 -48 -35 -44 -47 1 -4 -2 -6 -7 -5 -11 4
-106 -94 -103 -105 1 -5 -1 -6 -6 -3 -9 6 -48 -35 -44 -47 1 -4 -2 -6 -6 -5
-11 4 -112 -97 -112 -111 0 -6 -4 -10 -9 -9 -10 4 -66 -54 -63 -65 1 -4 -2 -6
-6 -5 -10 4 -77 -65 -74 -75 1 -5 -1 -6 -6 -3 -9 6 -48 -35 -44 -47 1 -4 -2
-6 -6 -5 -11 4 -98 -84 -94 -95 1 -5 -1 -6 -6 -3 -9 6 -48 -35 -44 -47 1 -4
-1 -6 -5 -5 -11 4 -79 -64 -75 -75 1 -5 -1 -6 -6 -3 -9 6 -42 -29 -42 -44 0
-6 -4 -9 -8 -8 -11 4 -108 -93 -104 -104 1 -4 -1 -7 -5 -6 -11 3 -109 -93
-105 -103 1 -5 -2 -8 -7 -7 -11 4 -117 -103 -113 -114 1 -4 -2 -8 -8 -8 -15 0
-50 -33 -44 -42 3 -5 2 -7 -3 -6 -11 4 -79 -64 -75 -75 1 -4 -1 -6 -5 -5 -12
4 -53 -35 -47 -44 3 -5 1 -7 -4 -6 -11 3 -107 -94 -104 -105 1 -4 -1 -6 -5 -5
-12 4 -53 -35 -47 -44 3 -5 1 -7 -3 -6 -11 4 -99 -83 -95 -94 1 -4 -1 -7 -5
-6 -12 4 -53 -35 -47 -44 3 -5 2 -7 -3 -6 -11 4 -79 -64 -75 -75 1 -5 -1 -6
-6 -3 -9 6 -42 -29 -42 -44 0 -6 -4 -9 -8 -8 -11 4 -118 -102 -114 -113 1 -5
-2 -8 -7 -7 -10 4 -106 -94 -103 -105 1 -4 -2 -6 -6 -5 -10 4 -78 -64 -74 -75
1 -4 -1 -6 -5 -5 -12 4 -53 -35 -47 -44 3 -5 1 -7 -4 -6 -11 3 -78 -64 -74
-75 1 -4 -1 -6 -6 -5 -4 2 -47 -36 -96 -84 l-89 -87 133 -133 c73 -73 137
-132 141 -130 5 1 8 -2 7 -6 -4 -11 222 -238 233 -234 5 1 8 -2 7 -6 -4 -11
222 -238 233 -234 5 1 8 -2 7 -6 -4 -11 143 -158 154 -154 4 1 7 -2 6 -6 -4
-11 222 -238 233 -234 5 1 8 -2 7 -6 -4 -11 222 -238 233 -234 5 1 8 -2 7 -6
-4 -11 302 -318 313 -314 5 1 8 -2 7 -6 -4 -11 143 -158 154 -154 4 1 7 -2 6
-6 -4 -12 226 -242 242 -242 15 0 196 181 192 192 -1 4 2 7 7 6 13 -4 167 155
163 167 -2 6 0 7 3 3 9 -8 111 91 107 104 -1 4 4 7 10 6 7 -2 12 3 10 10 -1 6
2 11 6 10 12 -4 188 175 184 187 -2 5 0 7 3 3 9 -8 111 91 107 104 -1 4 4 7
10 6 7 -2 12 3 10 10 -1 6 2 11 6 10 12 -4 107 95 104 107 -2 6 -1 7 3 3 9 -9
56 33 49 44 -3 5 -2 7 3 6 11 -4 179 163 175 174 -1 4 2 7 7 6 11 -4 137 123
133 134 -1 4 1 7 6 6 10 -4 178 163 174 174 -1 4 2 7 7 6 13 -4 167 155 163
167 -2 6 0 7 3 3 9 -8 111 91 107 104 -1 4 4 7 10 6 7 -2 12 3 10 10 -1 6 2
11 6 10 12 -4 188 175 184 187 -2 5 0 7 3 3 9 -8 111 91 107 104 -1 4 4 7 10
6 7 -2 12 3 10 10 -1 6 2 11 6 10 12 -4 107 95 104 107 -2 6 -1 7 3 3 9 -9 56
33 49 44 -3 5 -2 7 3 6 11 -4 179 163 175 174 -1 5 1 7 6 4 10 -6 48 35 44 47
-1 5 1 6 6 3 11 -6 43 30 34 39 -4 4 -2 5 3 3 12 -3 111 92 107 104 -1 4 4 7
10 6 7 -2 12 3 10 10 -1 6 2 11 6 10 13 -4 112 98 104 107 -4 3 -2 5 3 3 12
-4 171 150 167 163 -1 5 2 8 6 7 11 -4 178 164 174 174 -1 5 4 7 10 6 7 -2 12
3 10 10 -1 6 2 11 6 10 11 -4 118 103 114 114 -1 4 2 7 6 6 11 -4 178 164 174
175 -1 5 1 6 6 3 11 -7 53 40 44 49 -4 4 -2 5 3 3 12 -3 111 92 107 104 -1 4
4 7 10 6 7 -2 12 3 10 10 -1 6 2 11 6 10 13 -4 112 98 104 107 -4 3 -2 5 3 3
12 -3 111 92 107 104 -1 4 2 8 8 8 17 0 49 33 43 44 -3 6 -3 8 2 4 9 -8 111
91 107 104 -1 4 4 7 10 6 7 -2 12 3 10 10 -1 6 2 11 6 10 12 -4 107 95 104
107 -2 5 -1 7 3 3 9 -9 56 33 49 44 -3 5 -2 7 3 6 11 -4 179 163 175 174 -1 4
2 7 6 6 11 -4 118 103 114 114 -1 4 4 7 10 6 7 -2 12 3 10 10 -1 6 1 11 6 10
10 -4 178 163 174 174 -1 4 2 7 7 6 13 -4 167 155 163 167 -2 5 0 7 3 3 9 -8
111 91 108 104 -2 4 3 7 10 5 6 -1 11 4 10 10 -2 7 1 12 5 10 12 -3 107 96
104 108 -2 5 -1 7 3 3 9 -9 56 33 49 44 -3 5 -2 7 3 6 11 -4 179 163 176 174
-2 4 1 7 6 5 13 -3 167 156 163 168 -2 5 0 7 3 3 9 -8 111 91 108 104 -2 4 3
7 10 5 6 -1 11 4 10 10 -2 7 1 12 5 10 12 -3 188 176 184 188 -2 5 0 7 3 3 9
-8 111 91 108 104 -2 4 3 7 10 5 6 -1 11 4 10 10 -2 7 1 12 5 10 12 -3 107 96
104 108 -2 5 -1 7 3 3 9 -9 56 33 49 44 -3 5 -2 7 3 6 11 -4 179 163 175 174
-1 5 1 7 6 4 10 -6 48 35 44 47 -1 5 1 6 6 3 11 -6 43 30 34 39 -4 4 -2 5 3 3
12 -3 111 92 108 104 -2 4 3 7 10 5 6 -1 11 4 10 10 -2 7 1 12 5 10 13 -3 112
99 104 108 -4 3 -2 5 3 3 12 -4 171 150 168 163 -2 5 1 8 5 6 11 -3 178 165
175 175 -2 5 3 7 10 5 6 -1 11 4 10 10 -2 7 1 12 5 10 11 -3 118 104 115 115
-2 4 1 7 5 5 11 -3 178 165 174 176 -1 5 1 6 6 3 11 -7 53 40 44 49 -4 4 -2 5
3 3 12 -3 111 92 108 104 -2 4 3 7 10 5 6 -1 11 4 10 10 -2 7 1 12 5 10 13 -3
112 99 104 108 -4 5 -2 5 4 2 11 -6 44 26 44 43 0 6 4 9 9 7 11 -3 77 65 73
75 -1 5 1 7 6 5 10 -3 178 164 175 175 -2 4 1 7 6 5 13 -3 167 156 163 168 -2
5 0 7 3 3 9 -8 111 91 108 104 -2 4 3 7 10 5 6 -1 11 4 10 10 -2 7 1 12 5 10
12 -3 188 176 184 188 -2 5 0 7 3 3 9 -8 111 91 108 104 -2 4 3 7 10 5 6 -1
11 4 10 10 -2 7 1 12 5 10 12 -3 107 96 104 108 -2 5 -1 7 3 3 9 -9 56 33 49
44 -3 5 -2 7 3 6 11 -4 179 163 176 174 -2 4 1 7 6 5 11 -3 137 124 134 135
-2 4 0 7 5 5 10 -3 178 164 175 175 -2 4 1 7 6 5 13 -3 167 156 163 168 -2 5
0 7 3 3 9 -8 111 91 108 104 -2 4 3 7 10 5 6 -1 11 4 10 10 -2 7 1 12 5 10 12
-3 188 176 184 188 -2 5 0 7 3 3 9 -8 111 91 108 104 -2 4 3 7 10 5 6 -1 11 4
10 10 -2 7 1 12 5 10 12 -3 107 96 104 108 -2 5 -1 7 3 3 9 -9 56 33 49 44 -3
5 -2 7 3 6 11 -4 179 163 176 174 -2 4 0 7 5 6 12 -4 51 35 45 45 -3 6 -2 7 4
4 11 -7 44 28 35 38 -4 4 -2 5 3 3 13 -4 95 78 87 88 -4 4 -2 4 5 0 6 -3 14
-2 17 3 3 5 200 -185 437 -423 238 -237 436 -430 440 -429 5 2 8 -1 6 -5 -3
-11 303 -318 315 -315 4 2 7 -1 5 -5 -3 -12 943 -958 954 -955 5 2 8 -1 6 -5
-3 -11 303 -318 315 -315 4 2 7 -1 5 -5 -3 -11 224 -238 235 -235 4 2 7 -1 5
-5 -3 -12 304 -318 315 -315 4 2 7 -1 5 -6 -3 -11 1023 -1037 1034 -1034 5 2
8 -1 6 -5 -3 -11 303 -318 315 -315 4 2 7 -1 5 -5 -3 -12 623 -638 634 -635 5
2 8 -1 6 -5 -3 -11 224 -238 235 -235 4 2 7 -1 5 -6 -3 -11 623 -637 635 -634
4 2 7 -1 5 -5 -3 -12 304 -318 315 -315 4 2 7 -1 5 -6 -3 -11 623 -637 635
-634 4 2 7 -1 5 -6 -3 -11 943 -957 955 -954 4 2 7 -1 5 -6 -3 -11 623 -637
635 -634 4 2 7 -1 5 -5 -3 -12 304 -318 315 -315 4 2 7 -1 5 -6 -3 -11 623
-637 635 -633 4 1 7 -2 6 -6 -2 -5 195 -207 438 -450 428 -429 441 -441 462
-426 13 8 19 20 16 26 -4 6 -3 8 3 5 10 -7 49 33 45 46 -1 5 1 6 6 3 11 -6 43
30 34 39 -4 4 -2 5 3 3 12 -3 111 92 107 104 -1 5 1 7 6 4 11 -7 53 40 44 49
-4 4 -2 5 3 3 12 -3 111 92 107 104 -1 4 1 7 5 6 5 -2 26 14 48 35 21 20 35
37 30 37 -6 0 1 6 15 13 14 8 24 19 22 26 -1 7 1 10 6 7 10 -6 48 35 44 47 -1
5 1 6 6 3 11 -6 43 30 34 39 -4 4 -2 5 3 3 12 -3 111 92 107 104 -1 4 2 7 6 6
13 -4 133 118 124 126 -4 4 -2 6 3 5 6 -2 34 20 64 49 30 28 50 52 45 52 -5 0
2 6 16 13 14 8 24 19 22 26 -1 7 1 10 6 7 10 -6 48 35 44 47 -1 5 1 6 6 3 11
-6 43 30 34 39 -4 4 -2 5 3 3 12 -3 111 92 107 104 -1 4 1 7 5 6 5 -2 26 14
48 35 21 20 35 37 30 37 -6 0 1 6 15 13 14 8 24 19 22 26 -1 7 1 10 6 7 10 -6
48 35 44 47 -1 5 1 6 6 3 11 -6 43 30 34 39 -4 4 -2 5 3 3 12 -3 111 92 107
104 -1 5 1 7 6 4 11 -7 53 40 44 49 -4 4 -2 5 3 3 12 -3 111 92 108 104 -2 4
0 7 5 6 4 -2 25 14 47 35 21 20 35 37 30 37 -6 0 1 6 15 13 14 8 24 19 22 26
-1 7 1 10 6 7 10 -6 48 35 44 47 -1 5 1 6 6 3 11 -6 43 30 34 39 -4 4 -2 5 3
3 12 -3 111 92 108 104 -2 4 0 7 5 6 11 -4 77 63 74 76 -2 6 0 8 4 4 10 -10
34 11 34 29 0 17 -209 229 -222 226 -4 -2 -7 1 -5 6 3 11 -60 71 -67 64 -3 -4
-6 -1 -6 5 0 19 -33 52 -44 45 -6 -3 -8 -3 -4 1 9 11 -23 46 -35 39 -6 -3 -7
-2 -4 4 7 11 -27 43 -45 43 -6 0 -9 3 -5 6 7 7 -53 70 -64 67 -5 -2 -8 1 -6 5
3 12 -344 358 -355 354 -5 -1 -7 1 -4 6 6 10 -29 42 -46 42 -6 0 -8 3 -5 6 8
8 -253 270 -265 266 -5 -1 -7 1 -4 6 6 10 -29 42 -46 42 -6 0 -9 3 -5 6 8 8
-93 110 -105 106 -5 -1 -7 1 -4 6 6 10 -29 42 -46 42 -6 0 -9 3 -5 6 7 7 -53
70 -64 67 -5 -2 -8 1 -6 5 3 11 -183 198 -194 195 -5 -2 -8 1 -6 6 3 11 -60
71 -67 64 -3 -4 -6 -1 -6 5 0 17 -32 52 -42 46 -5 -3 -7 -1 -6 4 4 11 -342
358 -354 355 -4 -2 -7 1 -5 6 3 11 -60 71 -67 64 -3 -4 -6 -1 -6 5 0 19 -33
52 -44 45 -6 -3 -8 -3 -4 2 9 9 -181 201 -194 197 -5 -1 -7 1 -4 6 6 10 -29
42 -46 42 -6 0 -9 3 -5 6 8 8 -93 110 -105 106 -5 -1 -7 1 -4 6 6 10 -29 42
-46 42 -6 0 -9 3 -5 6 7 7 -53 70 -64 67 -5 -2 -8 1 -6 5 3 12 -344 358 -355
354 -5 -1 -7 1 -4 6 6 10 -29 42 -46 42 -6 0 -9 3 -5 6 8 8 -93 110 -105 106
-5 -1 -7 1 -4 6 6 10 -29 42 -46 42 -6 0 -9 3 -5 6 7 7 -53 70 -64 67 -5 -2
-8 1 -6 5 3 11 -183 198 -194 195 -5 -2 -8 1 -6 6 3 11 -60 71 -67 64 -3 -4
-6 -1 -6 5 0 17 -32 52 -42 46 -5 -3 -7 -1 -6 4 4 11 -342 358 -354 355 -4 -2
-7 1 -5 6 3 11 -60 71 -67 64 -3 -4 -6 -1 -6 5 0 19 -33 52 -44 45 -6 -3 -8
-3 -4 1 9 11 -23 46 -35 39 -6 -3 -7 -2 -4 4 7 11 -27 43 -45 43 -6 0 -9 3 -5
6 7 7 -53 70 -64 67 -5 -2 -8 1 -6 5 3 12 -344 358 -355 354 -5 -1 -7 1 -4 6
6 10 -29 42 -46 42 -6 0 -8 3 -5 6 8 8 -253 270 -265 266 -5 -1 -7 1 -4 6 6
10 -29 42 -46 42 -6 0 -9 3 -5 6 8 8 -93 110 -105 106 -5 -1 -7 1 -4 6 6 10
-29 42 -46 42 -6 0 -9 3 -5 6 7 7 -53 70 -64 67 -5 -2 -8 1 -6 5 3 12 -344
358 -355 354 -5 -1 -7 1 -4 6 6 10 -29 42 -46 42 -6 0 -9 3 -5 6 8 8 -93 110
-105 106 -5 -1 -7 1 -4 6 6 10 -29 42 -46 42 -6 0 -9 3 -5 6 7 7 -53 70 -64
67 -5 -2 -8 1 -6 5 3 11 -183 198 -194 195 -5 -2 -8 1 -6 6 3 11 -60 71 -67
64 -3 -4 -6 -1 -6 5 0 17 -32 52 -42 46 -5 -3 -7 -1 -6 4 4 11 -342 358 -354
355 -4 -2 -7 1 -5 6 3 11 -60 71 -67 64 -3 -4 -6 -1 -6 5 0 19 -33 52 -44 45
-6 -3 -8 -3 -4 2 9 9 -181 201 -194 197 -5 -1 -7 1 -4 6 6 10 -29 42 -46 42
-6 0 -9 3 -5 6 8 8 -93 110 -105 106 -5 -1 -7 1 -4 6 6 10 -29 42 -46 42 -6 0
-9 3 -5 6 7 7 -53 70 -64 67 -5 -2 -8 1 -6 5 3 11 -183 198 -194 195 -5 -2 -8
1 -6 6 3 11 -60 71 -67 64 -3 -4 -6 -1 -6 5 0 17 -32 52 -42 46 -5 -3 -7 -1
-6 4 4 11 -342 358 -354 355 -4 -2 -7 1 -5 6 3 11 -60 71 -67 64 -3 -4 -6 -1
-6 5 0 19 -33 52 -44 45 -6 -3 -8 -3 -4 1 9 11 -23 46 -35 39 -6 -3 -7 -2 -4
4 7 11 -27 43 -45 43 -6 0 -9 3 -5 6 7 7 -53 70 -64 67 -5 -2 -8 1 -6 5 3 12
-344 358 -355 354 -5 -1 -7 1 -4 6 6 10 -29 42 -46 42 -6 0 -8 3 -5 6 8 8
-253 270 -265 266 -5 -1 -7 1 -4 6 6 10 -29 42 -46 42 -6 0 -9 3 -5 6 8 8 -93
110 -105 106 -5 -1 -7 1 -4 6 6 10 -29 42 -46 42 -6 0 -9 3 -5 6 7 7 -53 70
-64 67 -5 -2 -8 1 -6 5 3 12 -344 358 -355 354 -5 -1 -7 1 -4 6 6 10 -29 42
-46 42 -6 0 -9 3 -5 6 8 8 -93 110 -105 106 -5 -1 -7 1 -4 6 6 10 -29 42 -46
42 -6 0 -9 3 -5 6 7 7 -53 70 -64 67 -5 -2 -8 1 -6 5 3 11 -183 198 -194 195
-5 -2 -8 1 -6 6 3 11 -60 71 -67 64 -3 -4 -6 -1 -6 5 0 17 -32 52 -42 46 -5
-3 -7 -1 -6 4 4 12 -162 178 -174 174 -5 -1 -7 2 -4 7 4 5 -1 14 -10 19 -13 7
-11 13 15 37 16 16 28 33 25 37 -3 5 -2 7 3 6 11 -4 179 163 176 174 -2 4 0 7
5 6 12 -4 51 35 45 45 -3 6 -2 7 4 4 11 -7 44 28 35 38 -4 4 -2 5 3 3 12 -3
111 92 108 104 -2 4 3 7 10 5 6 -1 11 4 10 10 -2 7 1 12 5 10 13 -3 112 99
104 108 -4 3 -2 5 3 3 12 -4 171 150 168 163 -2 5 1 8 5 6 11 -3 178 165 175
175 -2 5 3 7 10 5 6 -1 11 4 10 10 -2 7 1 12 5 10 11 -3 118 104 115 115 -2 4
1 7 5 5 11 -3 178 165 174 176 -1 5 1 6 6 3 11 -7 53 40 44 49 -4 4 -2 5 3 3
12 -3 111 92 108 104 -2 4 3 7 10 5 6 -1 11 4 10 10 -2 7 1 12 5 10 13 -3 112
99 104 108 -4 3 -2 5 3 3 12 -3 111 92 108 104 -2 4 1 8 7 8 17 0 49 33 43 44
-3 6 -3 8 2 4 9 -8 111 91 108 104 -2 4 3 7 10 5 6 -1 11 4 10 10 -2 7 1 12 5
10 12 -3 107 96 104 108 -2 6 -1 7 3 3 9 -9 56 33 49 44 -3 5 -2 7 3 6 11 -4
179 163 175 174 -1 4 1 7 6 6 4 -2 18 7 32 20 22 21 26 21 37 6 6 -9 16 -13
22 -9 6 3 11 1 11 -5 0 -7 7 -9 16 -6 8 3 13 2 10 -3 -7 -10 49 -33 58 -24 3
4 6 2 6 -4 0 -12 46 -28 69 -24 7 1 10 -2 6 -8 -6 -11 2 -14 37 -14 10 0 15
-4 11 -10 -4 -6 2 -8 15 -5 12 4 20 2 16 -3 -3 -5 0 -10 5 -10 21 -3 57 -16
84 -30 10 -5 22 -7 27 -4 6 4 10 1 10 -6 0 -6 8 -9 20 -6 13 3 18 1 13 -6 -4
-6 2 -8 15 -5 12 4 20 2 16 -3 -5 -8 9 -12 48 -12 10 0 15 -3 13 -7 -3 -4 4
-10 15 -13 11 -3 18 -1 15 3 -3 5 8 2 25 -6 16 -9 35 -12 41 -8 8 4 9 3 5 -4
-4 -7 -1 -12 6 -13 7 0 22 -3 33 -6 11 -2 28 -5 38 -6 9 -1 17 -5 17 -9 0 -4
9 -5 20 -3 11 2 20 -1 20 -7 0 -6 11 -8 25 -6 15 3 22 1 18 -5 -4 -6 0 -8 10
-4 9 3 19 1 23 -4 3 -6 15 -9 25 -6 11 3 19 1 19 -5 0 -6 8 -7 17 -4 9 4 19 3
22 -2 6 -9 71 -23 119 -26 12 0 22 -5 22 -10 0 -4 11 -6 25 -4 14 3 22 1 19
-4 -4 -6 7 -7 25 -5 18 3 29 1 25 -4 -3 -6 9 -8 30 -6 19 2 33 0 30 -4 -3 -5
10 -10 28 -10 18 -1 44 -3 58 -6 14 -2 44 -5 67 -6 22 -1 39 -5 36 -10 -2 -4
14 -6 36 -4 23 2 41 0 41 -4 0 -7 26 -10 129 -12 33 -1 57 -6 54 -10 -2 -4 20
-6 50 -5 31 2 54 1 51 -3 -2 -4 39 -6 90 -5 52 1 92 -2 90 -5 -2 -3 120 -6
271 -6 151 1 275 3 275 6 0 3 42 7 93 8 50 1 124 4 162 7 39 3 89 6 113 7 23
0 42 4 42 8 0 3 20 5 45 4 25 -1 45 1 45 5 0 4 17 7 37 6 21 0 42 2 48 5 9 5
76 11 123 11 13 0 21 4 18 8 -3 5 8 6 25 4 16 -2 29 0 29 6 0 5 14 8 31 6 17
-2 36 -1 43 3 10 7 44 12 89 14 9 0 15 4 13 8 -3 4 9 5 26 3 19 -3 28 -1 25 5
-4 6 5 9 24 7 16 -2 28 0 25 4 -3 6 22 10 87 12 9 1 15 5 12 9 -2 5 7 7 20 5
14 -1 27 1 30 6 3 4 14 6 24 3 10 -3 22 0 25 6 4 5 13 8 21 4 8 -3 15 -1 15 4
0 5 8 9 18 10 42 3 62 8 62 14 0 4 10 5 22 1 13 -3 19 -1 15 5 -4 6 4 8 20 5
16 -3 24 -1 20 5 -4 6 4 8 20 5 17 -3 24 -1 19 6 -4 7 1 10 13 7 25 -5 62 5
56 15 -2 4 7 5 22 2 19 -4 24 -2 18 8 -5 9 -2 10 14 5 11 -3 21 -3 21 2 0 5 9
10 20 11 43 4 50 6 50 13 0 5 7 6 15 3 8 -4 15 -2 15 4 0 6 10 8 22 4 14 -3
19 -1 14 6 -4 8 -2 10 8 6 8 -3 21 -2 28 2 14 9 19 11 44 13 8 0 13 5 10 10
-4 5 2 7 12 4 10 -2 24 2 31 10 6 8 21 13 31 10 11 -3 20 0 20 6 0 6 7 8 17 4
10 -4 14 -2 10 4 -5 7 1 9 15 5 14 -3 19 -1 14 6 -4 7 1 10 14 7 11 -2 20 0
20 5 0 5 7 6 17 3 10 -4 14 -2 10 4 -5 7 1 9 15 5 13 -3 19 -1 15 5 -5 7 1 9
15 5 16 -4 19 -2 13 8 -5 9 -4 11 3 6 7 -4 18 -4 25 1 13 8 18 10 43 12 8 0
12 5 9 11 -3 6 1 7 9 4 9 -3 16 -1 16 5 0 6 7 8 17 4 10 -4 14 -2 10 4 -5 7 1
9 15 5 14 -3 19 -1 14 6 -5 8 -2 10 8 6 9 -3 16 -1 16 5 0 6 7 8 17 4 9 -4 14
-2 11 3 -4 5 5 10 19 11 14 0 29 6 32 12 6 9 32 17 64 20 5 1 5 6 1 13 -4 6
-3 8 3 5 12 -8 73 14 73 26 0 4 4 6 9 3 13 -8 42 4 35 15 -3 5 3 6 12 2 11 -4
15 -3 11 4 -5 7 1 9 15 5 14 -3 19 -1 14 6 -4 8 -2 10 7 6 8 -3 21 2 30 10 8
8 17 12 21 9 3 -4 6 -1 6 6 0 6 6 11 13 9 20 -3 58 13 52 23 -3 5 2 6 11 2 12
-4 15 -3 10 5 -5 8 -1 10 10 5 11 -4 15 -2 11 4 -4 6 -1 11 6 10 34 -1 48 4
41 15 -5 7 -3 8 6 3 7 -4 16 -2 21 6 4 8 14 14 21 15 34 3 39 5 33 14 -3 6 1
7 9 4 9 -3 16 -1 16 6 0 6 5 8 10 5 6 -3 10 -1 10 4 0 6 3 10 8 10 19 -3 33 2
27 11 -3 5 0 7 8 4 8 -3 17 2 21 11 3 9 10 14 15 11 11 -7 62 14 56 23 -2 4 4
7 14 8 25 2 82 38 74 47 -4 4 0 4 10 0 10 -3 17 -1 17 6 0 6 4 9 9 6 5 -3 14
1 21 9 7 8 16 13 20 10 4 -3 19 4 33 15 14 11 30 20 36 20 6 0 11 5 11 10 0 6
3 9 8 8 14 -3 62 22 62 32 0 6 5 8 10 5 6 -3 10 -1 10 4 0 6 6 10 13 9 6 -2
11 3 9 10 -1 8 2 11 7 8 14 -9 42 5 34 17 -3 6 -1 7 6 3 6 -4 18 -1 26 6 34
31 50 43 52 41 8 -7 23 -2 19 6 -3 5 2 8 12 7 9 0 16 4 15 9 -1 6 7 12 18 12
25 2 71 38 61 48 -4 5 -1 5 5 1 15 -8 56 17 46 28 -4 4 0 4 10 0 9 -3 17 -2
17 4 0 5 13 15 30 22 16 7 27 16 24 21 -3 5 2 6 10 3 9 -3 16 -2 16 4 0 5 9
12 21 15 13 4 18 10 13 18 -5 8 -3 10 6 4 8 -5 18 -2 26 9 7 10 16 18 21 19 4
1 7 5 6 9 -2 4 4 5 12 2 8 -4 15 -1 15 5 0 6 7 11 15 11 8 0 15 5 15 10 0 6 5
10 11 10 16 0 39 26 31 35 -4 5 -1 5 5 1 12 -7 21 -2 58 32 8 7 18 14 22 15 4
1 7 6 5 10 -1 5 2 6 8 2 13 -8 42 14 35 25 -3 4 3 7 13 6 9 0 16 5 14 12 -1 8
2 11 8 7 5 -3 10 -1 10 4 0 6 6 10 13 9 6 -2 11 2 10 8 -1 7 5 11 15 10 9 0
16 5 14 12 -1 8 1 11 6 8 13 -8 53 24 46 36 -4 7 -2 8 4 4 7 -4 24 5 39 21 14
15 23 21 19 13 -5 -9 -2 -8 7 3 8 9 19 17 26 17 6 0 11 5 11 10 0 6 8 14 18
17 25 10 42 29 34 38 -4 5 -2 5 4 2 15 -9 56 22 48 36 -4 7 -4 9 1 5 11 -10
67 31 59 43 -3 6 1 9 9 7 8 -2 24 7 35 20 11 13 24 24 29 25 4 1 7 5 5 10 -1
4 4 6 10 5 7 -2 12 3 10 10 -1 6 6 12 16 12 9 0 26 11 36 25 10 14 23 25 29
25 5 0 23 14 39 30 15 17 32 30 36 30 12 0 57 53 54 63 -1 5 2 6 8 2 5 -3 10
-1 10 5 0 6 4 9 9 6 11 -7 33 19 23 28 -4 4 0 6 8 4 8 -1 14 3 12 10 -1 6 4
11 10 10 7 -2 12 3 10 10 -1 8 2 11 7 8 12 -8 103 79 94 88 -4 3 1 6 11 6 9 0
19 7 22 15 4 8 11 15 16 15 14 0 74 63 70 73 -1 5 1 6 6 3 12 -7 54 38 45 49
-5 4 -3 5 3 2 12 -7 46 28 36 38 -4 4 -2 5 3 3 12 -4 81 61 77 73 -1 5 2 8 6
7 12 -4 62 49 54 58 -4 4 -2 4 5 0 12 -6 28 10 28 29 0 6 7 10 15 10 8 1 14 7
12 14 -1 7 1 10 6 7 11 -7 42 30 34 40 -4 4 -2 4 4 1 6 -3 22 7 35 24 13 16
52 59 87 94 34 36 60 70 57 76 -4 5 -1 8 7 7 7 -2 12 3 10 10 -1 6 4 11 10 10
7 -2 12 3 10 10 -1 6 3 11 9 10 6 -2 16 6 22 17 7 11 18 24 25 28 7 5 9 14 6
20 -4 7 -4 9 0 5 13 -11 49 29 40 44 -4 7 -4 10 0 6 8 -7 69 42 62 50 -3 2 9
17 25 33 16 15 29 31 29 34 0 3 12 17 28 31 15 14 20 22 12 19 -8 -4 -1 5 15
20 17 15 29 34 27 42 -2 8 1 13 6 10 4 -4 16 3 25 14 9 10 13 19 9 19 -4 0 1
5 11 11 9 5 17 17 17 25 0 8 5 12 10 9 9 -6 14 8 11 28 0 4 2 6 6 5 5 -2 9 1
10 6 0 5 8 13 17 18 9 5 14 14 10 19 -3 5 -2 8 3 7 4 -2 10 2 12 7 2 6 12 16
22 23 11 7 19 20 19 28 0 8 4 14 10 14 5 0 12 11 16 25 3 13 11 23 18 22 6 -1
11 6 11 15 0 9 4 20 9 25 5 5 6 2 2 -7 -5 -8 3 -2 17 15 13 16 22 36 19 45 -3
8 -2 12 3 8 11 -10 38 20 29 33 -4 7 -3 9 3 6 11 -7 46 39 46 60 0 6 3 11 6
10 3 -1 7 2 8 7 1 5 5 12 10 15 18 14 57 64 43 56 -8 -5 -2 5 14 21 27 28 51
71 48 87 -1 4 4 6 10 5 7 -2 13 5 13 14 0 9 4 20 9 25 5 5 6 2 2 -7 -4 -8 2
-4 13 10 11 14 21 30 21 36 0 6 7 17 15 24 8 7 13 16 10 20 -3 4 2 11 11 14 9
3 14 13 10 21 -3 8 0 17 6 21 7 5 8 2 3 -6 -6 -9 -4 -11 4 -6 7 5 10 14 7 22
-3 8 0 13 7 11 7 -1 11 6 11 15 -1 10 2 16 6 13 4 -2 13 8 21 23 7 15 22 40
33 56 13 19 15 27 5 21 -7 -5 -2 4 13 19 15 16 26 32 23 36 -3 4 2 11 11 14 8
3 12 10 9 16 -3 5 -1 10 4 10 6 0 11 7 11 15 0 8 5 15 11 15 6 0 8 7 5 16 -4
10 -2 13 6 8 8 -5 9 -2 5 10 -4 9 -3 15 2 11 5 -3 19 14 31 37 12 24 33 62 46
86 13 23 21 42 18 42 -3 0 1 7 10 15 8 9 12 23 9 32 -4 10 -2 14 4 10 10 -7
28 19 25 36 -1 4 3 7 9 7 6 0 8 7 5 17 -4 10 -4 14 0 11 8 -9 45 62 38 74 -3
4 2 11 11 14 9 4 14 13 11 21 -3 8 -2 12 3 9 9 -6 26 40 22 57 -1 5 3 6 8 3 5
-4 15 11 22 31 6 21 18 44 26 51 7 8 11 18 8 23 -4 5 -1 9 5 9 7 0 9 7 6 17
-4 10 -4 14 0 10 10 -10 36 52 27 66 -4 6 -1 7 7 2 10 -6 12 -4 7 9 -5 11 -3
15 5 10 8 -5 9 -2 5 10 -4 9 -3 15 2 12 11 -7 23 22 14 36 -4 7 -1 8 7 3 10
-6 12 -3 8 13 -4 12 -2 20 3 16 5 -3 9 0 9 5 0 22 2 26 17 43 8 10 13 24 9 33
-3 9 -2 13 4 10 6 -3 11 -1 11 4 3 20 5 26 17 47 6 12 8 24 5 28 -3 3 -1 6 6
6 7 0 10 4 6 9 -3 5 -1 12 5 16 6 4 8 11 5 16 -4 5 -1 9 6 9 6 0 9 8 6 20 -3
13 -1 18 6 13 7 -4 8 0 4 11 -4 10 -3 15 3 11 9 -5 15 15 11 38 0 4 4 7 10 7
6 0 9 7 5 15 -3 8 -1 15 3 15 5 0 12 7 15 16 4 10 2 13 -7 8 -6 -4 -3 2 7 14
11 12 16 22 11 22 -4 0 -2 7 5 15 6 8 8 20 4 26 -5 8 -3 9 6 4 10 -6 12 -3 8
13 -4 14 -2 20 5 15 6 -4 8 2 4 16 -3 15 0 24 10 28 8 3 13 13 10 24 -3 11 -1
17 4 13 5 -3 9 1 10 8 0 7 2 20 4 28 3 8 6 24 7 35 2 11 8 26 15 33 6 7 10 21
8 32 -2 11 0 18 6 15 8 -6 12 7 12 47 0 10 4 15 8 12 9 -5 12 9 12 48 0 10 4
15 10 11 6 -4 8 0 4 10 -4 10 -1 17 5 17 6 0 8 3 5 7 -4 3 -2 12 4 20 6 7 9
22 6 33 -3 13 -1 18 6 13 6 -4 8 2 4 16 -3 13 -3 20 1 17 8 -8 33 75 26 86 -3
4 -1 8 5 8 5 0 8 11 7 25 -2 14 1 22 7 18 6 -4 8 4 5 20 -3 16 -1 24 5 20 6
-4 8 2 5 15 -4 12 -2 22 4 22 6 0 8 7 4 15 -3 8 -2 15 3 15 8 0 10 7 15 56 1
17 6 36 10 42 4 7 4 17 0 24 -5 7 -3 8 6 3 10 -6 12 -1 8 18 -3 16 -1 24 5 20
6 -4 8 4 5 21 -3 14 -2 26 2 26 4 0 7 6 8 13 1 21 11 72 13 72 3 0 10 47 12
77 1 14 6 24 10 21 5 -3 8 8 7 23 -1 16 -1 31 0 34 4 9 11 54 13 82 1 14 6 24
10 21 5 -3 7 11 4 31 -3 20 -1 33 4 30 5 -3 9 5 9 18 -1 37 7 94 13 105 3 5 4
21 3 36 -2 15 1 27 5 27 5 0 8 18 6 40 -2 22 0 40 4 40 4 0 8 17 9 38 4 115 6
132 12 132 3 0 6 24 5 54 -2 30 1 52 5 50 4 -3 6 27 5 65 -1 38 1 67 4 65 4
-2 6 43 5 100 0 57 2 103 5 101 3 -2 5 99 5 225 0 126 -2 227 -5 225 -3 -2 -5
42 -4 96 1 55 -1 97 -5 95 -6 -4 -9 34 -12 182 -1 23 -4 42 -8 42 -4 0 -8 19
-9 43 -1 44 -9 118 -13 127 -1 3 -2 17 -2 33 -1 15 -4 27 -8 27 -3 0 -4 14 -2
31 3 20 1 29 -5 26 -6 -4 -9 7 -6 28 2 19 -1 35 -6 35 -5 0 -7 14 -4 31 2 17
1 29 -4 26 -5 -3 -7 8 -5 25 3 18 1 28 -5 25 -5 -4 -8 7 -5 25 3 18 1 28 -5
25 -5 -3 -9 4 -10 16 -1 62 -4 78 -12 73 -4 -3 -6 6 -3 21 3 17 1 24 -6 19 -7
-4 -9 4 -6 23 3 16 0 32 -5 35 -6 4 -7 14 -4 23 4 10 2 14 -4 10 -6 -4 -9 3
-7 18 1 14 -2 25 -7 25 -4 0 -5 7 -2 17 4 11 3 14 -5 9 -8 -5 -10 -2 -6 8 3 9
3 24 -2 34 -10 23 -11 29 -13 53 0 11 -5 18 -10 15 -5 -4 -7 4 -3 16 3 13 1
19 -5 15 -6 -4 -8 4 -5 20 3 17 1 24 -6 19 -6 -4 -8 2 -4 16 3 13 1 19 -5 15
-7 -5 -9 1 -5 15 3 13 1 19 -5 15 -7 -5 -9 0 -6 13 3 11 0 20 -6 20 -6 0 -8 7
-4 17 4 10 2 14 -4 10 -7 -5 -9 0 -6 13 3 11 0 20 -6 20 -6 0 -8 7 -4 17 4 10
2 14 -4 10 -7 -5 -9 0 -6 13 3 11 0 20 -6 20 -6 0 -10 3 -10 8 4 24 -2 42 -13
36 -7 -4 -8 -3 -4 5 9 15 -3 53 -15 46 -5 -3 -6 1 -3 10 4 9 -2 25 -12 37 -11
12 -13 18 -7 14 9 -5 11 -2 7 8 -3 9 -10 16 -15 16 -4 0 -5 7 -2 17 4 11 3 14
-5 9 -8 -5 -10 -2 -6 8 3 9 1 16 -5 16 -6 0 -10 3 -10 8 1 4 0 10 -1 15 -4 12
-7 26 -9 38 0 5 -5 7 -11 4 -6 -4 -7 1 -3 11 4 12 3 15 -5 10 -8 -5 -10 -1 -5
10 5 13 3 15 -7 9 -9 -5 -11 -4 -6 4 9 14 -2 53 -14 46 -4 -3 -7 1 -7 8 2 14
-34 89 -46 98 -5 3 -8 9 -8 13 3 19 0 27 -7 22 -4 -2 -9 5 -9 16 -1 12 -7 24
-13 28 -7 4 -11 10 -11 14 3 20 0 26 -11 20 -6 -4 -8 -3 -5 3 9 14 -33 94 -46
86 -6 -3 -7 -1 -3 5 9 15 -18 55 -29 44 -5 -4 -5 -1 -1 6 8 14 -39 102 -54
102 -6 0 -9 3 -8 8 3 14 -14 42 -23 36 -5 -3 -6 1 -3 9 3 8 -2 20 -11 27 -8 7
-15 17 -15 22 0 11 -35 58 -41 55 -2 -1 -3 0 -2 2 6 10 -19 41 -28 35 -6 -3
-9 2 -7 12 2 11 -2 18 -8 17 -7 -1 -11 5 -10 15 0 9 -5 16 -12 14 -7 -1 -12 5
-10 15 2 11 -2 17 -10 15 -8 -1 -11 1 -8 6 3 5 -4 18 -14 30 -11 12 -20 26
-20 31 0 6 -6 14 -14 18 -7 4 -18 18 -25 31 -7 12 -17 20 -23 16 -7 -4 -8 -3
-4 4 4 7 -4 23 -18 37 -14 14 -30 34 -36 46 -6 11 -16 16 -22 13 -7 -4 -8 -2
-4 5 5 7 -10 29 -38 56 -25 25 -43 45 -40 45 2 0 -10 15 -27 33 -17 17 -37 31
-43 29 -6 -2 -8 0 -4 4 11 10 -12 35 -25 27 -6 -3 -7 -1 -3 5 8 13 -48 75 -58
64 -4 -4 -6 0 -4 8 2 8 -3 14 -9 13 -7 -2 -12 3 -10 10 1 6 -4 11 -10 10 -7
-2 -12 0 -11 5 3 9 -43 62 -55 62 -5 0 -21 13 -37 30 -15 16 -31 26 -35 22 -5
-4 -5 -2 -2 4 8 14 -17 37 -27 26 -4 -4 -6 0 -4 8 2 8 -3 14 -9 13 -7 -2 -13
2 -13 8 0 5 -5 7 -12 3 -6 -4 -8 -3 -5 3 6 10 -45 63 -61 63 -4 0 -16 11 -26
25 -10 14 -23 25 -29 25 -5 0 -18 10 -28 22 -11 11 -19 18 -19 13 0 -4 -9 3
-20 16 -10 13 -19 20 -20 15 0 -4 -9 2 -21 15 -11 13 -18 17 -14 9 4 -8 -3 -3
-15 13 -12 15 -28 27 -36 27 -8 0 -14 5 -14 10 0 6 -6 10 -14 10 -8 0 -17 7
-20 16 -3 8 -10 13 -14 10 -5 -3 -16 4 -25 15 -10 11 -22 17 -28 14 -5 -4 -8
-1 -7 7 2 7 -5 12 -14 12 -10 -1 -16 3 -15 10 1 6 -6 10 -17 8 -10 -2 -15 1
-12 7 4 5 -3 15 -15 21 -17 10 -20 9 -14 -2 3 -7 1 -6 -7 2 -28 33 -88 71 -99
64 -7 -4 -9 -3 -6 3 8 12 -53 44 -67 36 -5 -4 -6 -1 -1 7 6 10 4 12 -8 7 -10
-4 -16 -2 -14 6 1 7 -6 11 -15 11 -10 -1 -16 2 -13 6 4 6 -29 21 -43 19 -2 0
-10 8 -19 18 -9 11 -12 12 -8 3 4 -10 2 -9 -8 3 -8 9 -22 17 -31 17 -9 0 -16
3 -16 8 0 11 -52 32 -63 25 -6 -3 -7 -1 -3 6 5 7 -3 13 -23 17 -17 4 -31 11
-31 16 0 5 -4 6 -10 3 -5 -3 -10 -1 -10 5 0 6 -4 8 -10 5 -5 -3 -10 -1 -10 5
0 7 -7 10 -15 6 -8 -3 -19 2 -23 11 -6 10 -16 14 -26 10 -9 -4 -15 -3 -12 2 7
11 -22 23 -36 14 -6 -3 -8 -1 -5 4 8 12 -20 26 -34 17 -5 -3 -9 0 -9 6 0 7 -7
9 -16 6 -8 -3 -12 -2 -9 3 5 9 -24 23 -41 20 -20 -3 -35 2 -30 9 7 11 -64 33
-77 25 -6 -4 -7 -1 -2 7 6 10 4 12 -8 7 -10 -4 -17 -2 -17 4 0 6 -7 8 -16 5
-8 -3 -12 -2 -9 4 5 9 -18 15 -28 8 -2 -2 -10 2 -18 8 -15 12 -68 29 -81 26
-5 -1 -8 3 -8 9 0 6 -7 9 -15 6 -8 -4 -17 -1 -21 4 -3 6 -15 9 -25 6 -12 -3
-17 -1 -12 6 4 6 -2 8 -15 5 -12 -4 -20 -2 -16 3 3 5 -2 9 -10 9 -25 0 -30 1
-41 9 -5 5 -20 7 -32 6 -12 -1 -19 3 -16 8 4 6 -3 8 -15 5 -14 -4 -20 -2 -16
4 5 7 -2 9 -19 6 -17 -3 -24 -1 -20 5 4 6 0 8 -10 4 -9 -3 -19 -1 -23 4 -3 6
-17 8 -31 4 -18 -4 -23 -2 -17 6 5 8 -1 10 -19 7 -15 -3 -24 -1 -21 3 3 5 -6
10 -20 10 -29 2 -34 3 -58 13 -10 5 -25 5 -34 2 -10 -4 -13 -2 -8 6 5 7 -1 9
-20 6 -14 -3 -26 -1 -26 5 0 5 -11 7 -25 5 -14 -3 -28 -1 -31 4 -3 5 -12 7
-20 4 -7 -3 -16 -1 -19 4 -3 5 -19 8 -35 6 -17 -2 -30 0 -30 5 0 5 -13 7 -30
5 -16 -2 -30 1 -30 6 0 6 -13 8 -30 6 -16 -3 -30 -1 -30 2 0 8 -23 11 -102 13
-25 1 -44 5 -41 10 2 4 -16 6 -41 4 -24 -2 -43 0 -40 5 3 4 -13 7 -36 5 -23
-2 -43 0 -45 3 -2 4 -33 6 -69 6 -35 -1 -62 2 -60 5 2 4 -32 6 -75 6 -44 -1
-77 1 -76 4 5 8 -591 7 -604 0z m-22021 -25045 c0 -2 -8 -10 -17 -17 -16 -13
-17 -12 -4 4 13 16 21 21 21 13z"/>
<path d="M5829 30723 c-13 -16 -23 -32 -21 -36 1 -5 -2 -6 -7 -3 -5 4 -20 -8
-33 -26 -12 -18 -47 -56 -76 -85 -29 -29 -50 -58 -47 -63 4 -6 1 -9 -7 -8 -7
2 -12 -3 -11 -9 2 -7 -3 -12 -10 -10 -6 1 -11 -5 -9 -13 2 -8 1 -12 -3 -8 -8
7 -40 -20 -40 -33 0 -4 -13 -18 -29 -32 -18 -16 -26 -29 -21 -37 5 -8 4 -11
-1 -7 -5 3 -19 -6 -29 -19 -11 -14 -30 -36 -43 -49 -13 -14 -19 -25 -15 -25 4
0 0 -5 -9 -10 -9 -6 -27 -25 -39 -42 -13 -17 -17 -28 -9 -23 9 5 11 4 6 -3 -4
-7 -14 -12 -22 -12 -8 0 -14 -7 -14 -15 0 -8 -5 -15 -10 -15 -6 0 -15 -11 -20
-25 -5 -14 -15 -25 -21 -25 -6 0 -9 -6 -6 -14 4 -9 -2 -16 -15 -19 -14 -4 -19
-11 -14 -22 3 -9 2 -13 -4 -10 -11 7 -32 -29 -22 -40 4 -5 2 -5 -4 -2 -7 4
-20 -9 -32 -33 -10 -22 -23 -36 -27 -32 -5 4 -5 -2 -1 -13 4 -11 4 -16 0 -12
-10 9 -45 -33 -37 -46 3 -5 2 -7 -4 -4 -5 3 -17 -7 -27 -24 -9 -16 -14 -29
-11 -29 4 0 0 -7 -7 -15 -31 -34 -36 -43 -31 -49 4 -3 2 -6 -4 -6 -6 0 -16
-13 -23 -30 -7 -16 -16 -30 -21 -30 -5 0 -9 -7 -9 -15 0 -8 -5 -15 -11 -15 -6
0 -8 -7 -5 -16 3 -8 2 -12 -4 -9 -5 3 -19 -17 -32 -45 -13 -27 -27 -50 -31
-50 -5 0 -5 -4 -2 -10 3 -5 2 -10 -3 -10 -14 0 -54 -79 -46 -92 4 -6 3 -8 -2
-5 -13 7 -66 -91 -57 -106 4 -6 1 -7 -7 -2 -10 6 -12 4 -7 -9 4 -10 3 -15 -3
-11 -9 6 -14 -8 -11 -27 0 -5 -3 -8 -9 -8 -5 0 -10 -9 -10 -20 0 -11 -5 -20
-11 -20 -6 0 -8 -7 -5 -16 3 -8 2 -13 -3 -10 -12 8 -23 -22 -14 -37 3 -7 3 -9
-2 -5 -9 9 -37 -40 -30 -52 3 -5 -3 -13 -12 -19 -10 -6 -15 -11 -10 -11 4 0 1
-10 -8 -23 -8 -13 -12 -27 -8 -30 3 -4 1 -7 -5 -7 -6 0 -9 -7 -5 -17 4 -11 3
-14 -5 -9 -8 5 -14 -3 -18 -24 -4 -17 -11 -33 -15 -36 -5 -3 -7 -10 -4 -15 4
-5 1 -9 -5 -9 -7 0 -9 -8 -5 -21 5 -15 4 -19 -4 -15 -9 6 -16 -7 -9 -16 1 -2
-5 -14 -12 -28 -8 -14 -13 -28 -12 -32 1 -5 -3 -8 -9 -8 -6 0 -9 -7 -5 -15 3
-8 0 -15 -6 -15 -6 0 -8 -3 -5 -7 4 -3 2 -12 -4 -20 -6 -7 -8 -13 -3 -13 5 0
3 -4 -4 -9 -7 -4 -14 -18 -15 -29 -1 -12 -5 -22 -10 -22 -4 0 -6 -4 -2 -9 3
-5 0 -13 -6 -16 -5 -4 -8 -13 -5 -21 3 -8 1 -14 -5 -14 -6 0 -8 -3 -6 -8 3 -4
-3 -25 -14 -46 -10 -21 -16 -43 -13 -47 3 -5 0 -9 -6 -9 -7 0 -10 -7 -6 -15 3
-8 0 -15 -5 -15 -6 0 -9 -9 -6 -20 3 -13 1 -18 -6 -13 -6 4 -8 0 -4 -10 3 -10
2 -17 -4 -17 -5 0 -7 -11 -5 -25 3 -17 1 -23 -6 -19 -7 5 -9 0 -6 -14 4 -14 2
-20 -5 -15 -6 4 -8 -2 -5 -15 4 -14 2 -20 -5 -15 -6 4 -8 -2 -5 -15 4 -14 2
-20 -5 -15 -6 4 -8 -2 -5 -15 3 -12 2 -22 -3 -24 -8 -3 -19 -45 -22 -90 -1
-10 -5 -18 -10 -18 -5 0 -7 -7 -3 -15 3 -8 1 -15 -5 -15 -6 0 -9 -7 -6 -15 4
-8 1 -17 -4 -21 -6 -3 -9 -17 -6 -30 2 -14 0 -27 -5 -30 -5 -3 -7 -13 -4 -21
4 -9 2 -11 -6 -7 -7 5 -9 -1 -6 -19 3 -15 1 -24 -3 -21 -5 3 -10 -5 -10 -18
-2 -24 -4 -42 -15 -93 -3 -16 -6 -38 -7 -47 -1 -10 -4 -18 -7 -18 -4 0 -7 -6
-7 -12 0 -7 -4 -33 -8 -58 -4 -25 -7 -57 -8 -72 -1 -16 -5 -28 -9 -28 -4 0 -8
-10 -8 -22 0 -57 -6 -106 -12 -102 -4 2 -7 -8 -8 -23 -4 -102 -6 -123 -11
-123 -4 0 -6 -18 -5 -40 1 -22 -1 -40 -5 -40 -5 0 -7 -20 -5 -45 1 -25 -1 -48
-5 -51 -5 -2 -8 -26 -9 -52 -3 -168 -6 -230 -11 -226 -3 2 -6 -138 -6 -311 0
-173 3 -315 6 -315 3 0 7 -35 8 -78 1 -42 4 -104 7 -137 3 -33 5 -82 6 -108 0
-27 4 -46 9 -42 6 3 8 -13 5 -39 -3 -24 -1 -47 4 -50 5 -3 8 -19 6 -36 -2 -17
0 -29 4 -26 4 2 6 -11 4 -30 -2 -19 0 -34 6 -34 5 0 7 -16 5 -36 -2 -19 0 -33
5 -30 4 3 7 -11 6 -30 -2 -19 0 -33 4 -30 4 2 8 -11 9 -30 4 -72 6 -84 13 -84
4 0 5 -12 2 -26 -3 -18 -1 -25 6 -20 7 4 9 -4 6 -24 -3 -16 -1 -30 4 -30 5 0
8 -11 7 -25 -2 -14 0 -25 4 -25 4 0 7 -10 7 -22 1 -42 16 -108 25 -103 4 3 6
-6 3 -21 -3 -14 -1 -23 4 -20 5 3 7 -6 4 -21 -3 -16 -1 -24 5 -20 6 4 8 -4 5
-20 -3 -17 -1 -24 6 -19 7 4 9 -2 6 -18 -2 -14 0 -28 6 -31 6 -4 8 -11 5 -16
-4 -5 -2 -9 3 -9 6 0 8 -10 4 -22 -3 -13 -1 -19 5 -15 7 5 9 0 6 -13 -3 -11 0
-20 6 -20 5 0 8 -7 5 -15 -3 -8 -2 -20 2 -27 9 -14 11 -19 13 -44 0 -8 5 -13
10 -9 6 3 8 -6 5 -20 -2 -14 0 -25 5 -25 6 0 7 -7 4 -17 -4 -10 -2 -14 4 -10
7 5 9 0 6 -13 -3 -11 0 -20 6 -20 6 0 8 -7 4 -17 -4 -10 -2 -14 4 -10 7 5 9
-1 5 -15 -3 -13 -1 -19 5 -15 7 5 9 -1 5 -15 -3 -13 -1 -19 5 -15 6 4 11 1 10
-6 -1 -31 4 -48 12 -43 5 4 7 -4 3 -16 -4 -15 -2 -19 7 -13 10 5 11 2 7 -13
-4 -11 -2 -23 4 -27 6 -3 8 -11 5 -16 -4 -5 -1 -9 5 -9 6 0 9 -4 5 -9 -3 -5
-1 -12 5 -16 6 -4 8 -11 5 -16 -4 -5 -2 -9 4 -9 6 0 8 -6 5 -14 -3 -8 -1 -17
5 -21 6 -3 11 -14 11 -25 0 -10 6 -20 14 -23 9 -4 12 -14 9 -26 -3 -12 -1 -21
6 -21 6 0 10 -3 10 -7 -3 -20 2 -34 10 -29 5 4 7 -4 3 -16 -4 -16 -2 -19 8
-13 8 5 11 4 6 -3 -4 -6 -2 -19 3 -29 5 -10 15 -32 22 -50 7 -17 16 -30 20
-27 4 2 5 -6 1 -18 -4 -16 -2 -19 8 -13 8 5 11 4 7 -3 -9 -14 3 -43 14 -36 5
3 6 -3 2 -12 -4 -12 -3 -15 5 -10 8 5 10 1 5 -10 -5 -13 -3 -15 7 -9 9 6 11 4
5 -5 -4 -7 -2 -16 6 -21 8 -4 14 -14 15 -21 1 -26 26 -78 35 -72 5 3 6 -2 3
-10 -3 -9 -1 -16 6 -16 6 0 8 -4 5 -10 -3 -5 -1 -10 4 -10 6 0 10 -3 10 -7 -3
-21 2 -33 13 -27 6 4 8 3 5 -3 -8 -13 17 -65 27 -56 4 4 4 -1 0 -11 -5 -13 -4
-17 3 -13 6 4 10 -1 9 -11 0 -9 5 -16 12 -14 7 1 12 -3 11 -10 -3 -27 1 -39
13 -32 7 4 8 3 4 -4 -9 -15 18 -55 29 -44 5 4 5 1 1 -6 -5 -8 -1 -19 10 -28
11 -9 13 -13 7 -9 -9 4 -11 1 -7 -9 3 -9 10 -16 15 -16 5 0 9 -7 9 -16 0 -8 4
-13 9 -10 5 3 8 -2 7 -12 0 -9 4 -16 11 -15 7 2 10 -3 7 -10 -2 -7 3 -21 12
-32 8 -11 12 -14 8 -6 -5 9 -3 12 5 7 6 -4 11 -13 10 -19 -3 -19 12 -47 22
-41 5 3 6 -2 3 -10 -3 -9 -1 -16 5 -16 6 0 11 -7 11 -16 0 -9 5 -12 12 -8 8 5
9 2 5 -10 -4 -10 -1 -19 8 -22 8 -4 12 -10 9 -15 -3 -5 0 -9 5 -9 6 0 11 -4
11 -10 0 -12 48 -82 63 -92 7 -4 8 -8 4 -8 -4 0 -2 -6 5 -14 7 -8 16 -12 20
-9 4 2 5 -3 2 -11 -3 -9 -1 -16 5 -16 6 0 11 -7 11 -16 0 -8 4 -13 9 -10 5 3
12 -5 15 -18 3 -13 19 -38 35 -55 16 -17 27 -31 23 -31 -3 0 8 -12 24 -26 16
-15 22 -23 14 -18 -13 7 -13 5 -1 -9 7 -9 18 -14 24 -10 6 3 7 1 3 -5 -8 -14
24 -53 37 -45 6 4 7 1 3 -6 -9 -14 22 -53 35 -45 5 3 6 -1 3 -9 -3 -8 3 -20
12 -28 15 -12 17 -12 9 0 -5 10 -4 12 4 7 6 -4 9 -11 6 -16 -3 -4 9 -22 25
-40 17 -18 30 -35 30 -39 0 -14 47 -51 55 -44 4 5 5 2 1 -5 -5 -8 9 -29 38
-57 25 -25 43 -45 40 -45 -3 0 18 -24 47 -52 29 -29 56 -52 61 -50 4 1 7 -4 6
-10 -2 -7 3 -12 10 -10 8 1 11 -2 7 -8 -8 -13 14 -42 26 -34 5 3 8 0 7 -8 -2
-7 3 -12 10 -10 6 1 11 -4 10 -10 -2 -7 3 -12 10 -10 6 1 11 -4 10 -10 -2 -7
3 -12 10 -10 6 1 11 -4 10 -10 -2 -7 3 -12 10 -10 6 1 11 -4 10 -10 -2 -7 3
-12 10 -10 6 1 11 -4 10 -10 -2 -7 3 -12 10 -10 6 1 11 -1 10 -5 -4 -12 84
-103 94 -97 5 3 7 1 6 -4 -4 -11 143 -158 154 -154 4 1 7 -4 6 -10 -2 -7 3
-12 10 -10 8 1 11 -1 8 -6 -7 -12 48 -64 58 -55 4 5 6 1 4 -7 -2 -8 3 -14 10
-12 6 1 11 -4 10 -10 -2 -7 3 -12 10 -10 6 1 11 -4 10 -10 -2 -7 3 -12 10 -10
6 1 11 -1 10 -5 -4 -12 84 -103 94 -97 5 3 7 0 6 -8 -2 -7 3 -12 10 -10 6 1
11 -4 10 -10 -2 -7 3 -12 10 -10 6 1 11 -4 10 -10 -2 -7 3 -12 10 -10 6 1 11
-4 10 -10 -2 -7 3 -12 10 -10 6 1 11 -4 10 -10 -2 -7 3 -12 10 -10 6 1 11 -4
10 -10 -2 -7 3 -12 10 -10 6 1 11 -4 10 -10 -2 -7 3 -12 10 -10 6 1 11 -1 10
-5 -4 -12 84 -103 94 -97 5 3 7 1 6 -4 -4 -11 143 -158 154 -154 4 1 7 -4 6
-10 -2 -7 3 -12 10 -10 6 1 11 -4 10 -10 -2 -7 3 -12 10 -10 6 1 11 -4 10 -10
-2 -7 3 -12 10 -10 8 1 11 -2 8 -7 -3 -5 2 -15 11 -22 14 -12 16 -12 8 1 -5 8
13 -7 39 -35 27 -27 54 -49 60 -47 6 2 8 0 4 -4 -10 -9 202 -220 216 -216 6 2
8 0 4 -4 -9 -9 143 -160 157 -156 5 2 7 0 3 -3 -9 -10 163 -181 177 -177 5 2
7 1 3 -3 -9 -9 23 -45 34 -39 5 3 7 1 6 -4 -4 -12 84 -98 97 -94 6 2 7 0 3 -3
-9 -10 163 -181 177 -177 5 2 7 1 3 -3 -9 -9 23 -45 34 -39 5 3 7 1 6 -4 -4
-13 243 -258 256 -254 6 2 8 0 4 -4 -9 -9 83 -100 97 -96 5 2 7 0 3 -4 -10 -9
202 -220 216 -216 6 2 8 0 4 -4 -9 -9 143 -160 157 -156 5 2 7 0 3 -3 -9 -10
163 -181 177 -177 5 2 7 1 3 -3 -9 -9 23 -45 34 -39 5 3 7 1 6 -4 -4 -13 243
-258 256 -254 6 2 8 0 4 -4 -9 -9 143 -160 157 -156 5 2 7 1 3 -3 -8 -9 152
-171 165 -167 5 1 6 -1 3 -6 -6 -11 30 -43 39 -34 4 4 5 2 3 -3 -4 -14 92
-111 106 -107 6 2 8 0 4 -3 -9 -10 163 -181 177 -177 5 2 7 1 3 -3 -9 -9 23
-45 34 -39 5 3 7 1 6 -4 -4 -13 243 -258 256 -254 6 2 8 0 4 -4 -9 -9 83 -100
97 -96 5 2 7 0 3 -4 -10 -9 202 -220 216 -216 6 2 8 0 4 -4 -9 -9 143 -160
157 -156 5 2 7 1 3 -3 -8 -9 152 -171 165 -167 5 1 6 -1 3 -6 -6 -11 30 -43
39 -34 4 4 5 2 3 -3 -4 -14 92 -111 106 -107 6 2 8 0 4 -3 -10 -10 180 -198
191 -190 6 3 13 0 17 -6 5 -8 3 -9 -7 -4 -8 5 4 -9 25 -31 22 -21 43 -38 48
-37 4 2 7 -1 5 -5 -3 -12 188 -202 204 -202 7 0 10 -3 6 -6 -8 -9 93 -110 107
-106 6 2 8 1 4 -3 -9 -9 23 -45 41 -45 8 0 11 -3 8 -6 -8 -8 252 -270 264
-267 5 2 8 -1 6 -5 -3 -12 188 -202 202 -202 7 0 10 -3 8 -7 -2 -5 19 -32 49
-61 l52 -54 75 75 c42 41 73 78 69 82 -4 4 -2 5 4 3 14 -4 80 62 76 76 -2 6 0
8 3 4 9 -8 121 102 117 115 -1 5 1 7 5 4 11 -6 283 269 275 278 -4 4 -2 5 4 3
14 -4 80 62 76 76 -2 6 -1 8 3 4 9 -8 204 184 198 195 -3 4 -1 6 4 5 12 -4
163 148 155 157 -4 4 -2 5 4 3 14 -4 80 62 76 76 -2 6 -1 8 3 4 9 -8 121 103
117 116 -2 6 -1 8 3 4 8 -8 124 104 118 115 -2 4 0 6 4 5 12 -4 79 63 75 75
-1 4 1 7 5 4 11 -6 283 269 275 278 -4 4 -2 5 3 3 14 -4 126 107 117 117 -4 3
-2 5 4 3 13 -4 85 68 76 77 -4 4 -2 5 3 3 12 -4 141 122 138 134 -2 4 3 7 10
5 6 -1 11 6 10 16 0 10 1 16 4 13 8 -8 92 78 85 88 -3 5 0 6 5 3 13 -8 36 17
25 27 -4 4 0 6 8 4 8 -2 14 3 13 9 -2 7 1 12 5 10 13 -3 112 99 104 108 -4 5
-2 5 4 2 14 -8 37 17 26 28 -4 5 -2 5 4 2 14 -8 57 36 47 47 -5 4 -1 6 7 4 8
-2 14 3 13 9 -2 7 3 12 10 10 6 -1 11 4 10 10 -2 7 3 12 10 10 6 -1 11 4 9 11
-1 8 2 11 7 8 12 -8 33 19 23 30 -4 5 -3 6 1 2 11 -8 48 23 41 34 -3 5 -1 7 4
6 13 -4 112 98 104 107 -4 5 -2 5 4 2 14 -8 37 17 26 28 -4 5 -2 5 4 2 14 -8
57 36 47 47 -5 4 -1 6 7 4 8 -2 14 3 13 9 -2 7 3 12 10 10 6 -1 11 4 10 10 -2
7 3 12 10 10 6 -1 11 4 9 11 -1 8 2 11 7 8 12 -8 33 18 23 29 -4 5 -2 6 3 3
13 -7 77 57 67 67 -4 5 -2 5 4 2 14 -8 37 17 26 27 -4 4 0 6 8 4 8 -2 14 3 13
9 -2 7 3 12 10 10 6 -1 11 4 10 10 -2 7 3 12 10 10 6 -1 11 4 10 10 -2 7 3 12
10 10 6 -1 11 4 10 10 -2 7 3 12 10 10 6 -1 11 4 10 10 -2 7 1 12 5 10 13 -3
112 99 104 108 -4 5 -2 5 4 2 14 -8 37 17 26 28 -4 5 -2 5 4 2 13 -7 55 38 46
49 -4 4 -2 4 4 1 14 -8 37 17 26 27 -4 4 0 6 8 4 8 -2 14 3 13 9 -2 7 3 12 10
10 6 -1 11 4 10 10 -2 7 3 12 10 10 6 -1 11 4 9 11 -1 8 1 11 6 8 12 -7 73 60
64 70 -4 4 -2 4 4 1 14 -8 37 17 26 27 -4 4 0 6 8 4 8 -2 14 3 13 9 -2 7 3 12
10 10 6 -1 11 4 10 10 -2 7 3 12 10 10 6 -1 11 4 9 11 -1 8 1 11 6 8 12 -7 54
38 45 49 -5 4 -3 5 3 2 13 -7 37 16 29 26 -3 4 -2 5 1 2 8 -6 110 96 107 107
-2 4 3 7 10 5 6 -1 11 4 9 11 -1 8 2 11 7 8 10 -7 33 18 26 27 -3 4 -2 5 1 2
9 -6 110 96 106 107 -1 5 1 7 6 4 11 -7 42 30 34 40 -4 4 -2 4 4 1 14 -8 37
17 26 27 -4 4 0 6 8 4 8 -2 14 3 13 9 -2 7 3 12 10 10 6 -1 11 4 10 10 -2 7 3
12 10 10 6 -1 11 4 9 11 -1 8 1 11 6 8 12 -7 54 38 45 49 -5 4 -3 5 3 2 13 -7
37 16 29 26 -3 4 -2 5 1 2 8 -6 110 96 107 107 -2 4 3 7 10 5 6 -1 11 4 10 10
-2 7 3 12 10 10 6 -1 11 4 10 10 -2 7 3 12 10 10 6 -1 11 4 9 11 -1 8 2 11 7
7 6 -3 15 3 20 13 8 15 6 23 -8 36 -10 9 -21 13 -26 9 -4 -5 -5 -3 -2 3 7 12
-28 46 -38 36 -4 -4 -5 -2 -3 3 4 14 -48 66 -58 57 -4 -4 -4 -2 -1 4 7 11 -20
41 -32 37 -3 -2 -6 1 -6 5 0 14 -32 41 -40 34 -5 -4 -5 -2 -2 4 7 12 -10 32
-28 33 -5 1 -10 7 -10 14 -1 6 -7 11 -14 9 -7 -1 -10 1 -7 6 6 11 -30 43 -39
34 -4 -4 -5 -2 -3 3 4 14 -131 151 -146 147 -6 -2 -8 -1 -4 3 9 9 -23 45 -34
39 -5 -3 -7 0 -6 7 2 7 -4 13 -12 14 -8 0 -15 5 -15 10 0 19 -16 35 -28 29 -7
-4 -9 -4 -5 1 8 9 -20 40 -36 40 -6 0 -11 5 -11 10 0 19 -16 35 -28 29 -7 -4
-9 -4 -5 0 9 10 -43 62 -57 58 -5 -2 -7 -1 -3 3 9 9 -23 45 -34 39 -5 -3 -7 0
-6 7 2 7 -4 13 -12 14 -8 0 -15 5 -15 10 0 19 -16 35 -28 29 -7 -4 -9 -4 -5 0
10 12 -58 79 -73 71 -7 -5 -10 -4 -6 2 6 10 -45 63 -62 63 -5 0 -13 5 -17 12
-5 7 -3 8 7 3 12 -8 12 -6 0 8 -7 9 -18 14 -24 10 -5 -3 -7 -2 -4 4 7 11 -28
44 -38 35 -4 -4 -5 0 -3 8 2 8 -3 14 -9 13 -7 -2 -12 3 -10 10 1 6 -4 11 -10
10 -7 -2 -12 0 -11 5 4 11 -44 62 -59 62 -8 0 -12 4 -9 9 7 11 -19 33 -28 23
-4 -4 -6 0 -4 8 2 8 -3 14 -9 13 -7 -2 -12 1 -10 5 3 10 -67 82 -81 82 -6 0
-14 5 -18 12 -5 7 -3 8 7 3 12 -8 12 -6 0 8 -7 9 -18 14 -24 10 -5 -3 -7 -2
-4 4 7 11 -28 44 -38 35 -4 -4 -5 0 -3 8 2 8 -3 14 -10 12 -8 -1 -11 1 -8 6 6
9 -47 62 -63 62 -5 0 -13 5 -17 12 -5 7 -3 8 7 3 12 -8 12 -6 0 8 -7 9 -18 14
-24 10 -5 -3 -7 -2 -4 4 7 11 -28 44 -38 35 -4 -4 -5 0 -3 8 1 8 -3 14 -10 12
-6 -1 -11 4 -10 10 2 7 -3 12 -10 10 -6 -1 -11 1 -10 5 4 12 -44 63 -59 63 -8
0 -12 4 -9 9 7 11 -19 33 -28 23 -4 -4 -6 0 -4 8 1 8 -3 14 -10 12 -6 -1 -11
4 -10 10 2 7 -3 12 -10 10 -6 -1 -11 4 -10 10 2 7 -3 12 -10 10 -6 -1 -11 1
-10 5 4 12 -44 63 -59 63 -8 0 -12 4 -9 9 7 11 -19 33 -28 23 -4 -4 -6 0 -4 8
1 8 -3 14 -10 12 -6 -1 -11 2 -10 6 4 10 -66 82 -80 82 -6 0 -14 5 -18 12 -5
7 -3 8 7 3 12 -8 12 -6 0 8 -7 9 -18 14 -24 10 -5 -3 -7 -2 -4 4 7 11 -28 44
-38 35 -4 -4 -5 0 -3 8 2 8 -3 14 -10 12 -8 -1 -11 1 -8 6 6 9 -47 62 -63 62
-5 0 -13 5 -17 12 -5 7 -3 8 7 3 12 -8 12 -6 0 8 -7 9 -18 14 -24 10 -5 -3 -7
-2 -4 4 7 11 -28 44 -38 35 -4 -4 -5 0 -3 8 1 8 -3 14 -10 12 -6 -1 -11 4 -10
10 2 7 -3 12 -10 10 -6 -1 -11 1 -10 5 4 12 -44 63 -59 63 -8 0 -12 4 -9 9 7
11 -19 33 -28 23 -4 -4 -6 0 -4 8 1 8 -3 14 -10 12 -6 -1 -11 4 -10 10 2 7 -4
11 -12 10 -8 -2 -12 -1 -8 3 9 10 -24 45 -35 38 -6 -3 -7 -1 -4 4 4 6 -1 17
-10 24 -14 12 -16 12 -8 0 5 -10 4 -12 -3 -7 -7 4 -12 12 -12 18 0 14 -72 84
-82 80 -4 -1 -7 4 -6 10 2 7 -3 12 -10 10 -8 -1 -11 2 -8 7 7 11 -18 33 -27
24 -4 -3 -7 0 -7 9 0 16 -50 64 -63 60 -4 -1 -6 4 -5 10 2 7 -3 12 -10 10 -6
-1 -11 4 -10 10 2 7 -3 12 -10 10 -6 -1 -11 4 -10 10 2 7 -3 12 -10 10 -8 -1
-11 2 -8 7 7 11 -18 33 -27 24 -4 -3 -7 0 -7 9 0 16 -50 64 -63 60 -4 -1 -6 4
-5 10 2 7 -3 12 -10 10 -6 -1 -11 4 -10 10 2 7 -4 11 -12 10 -8 -2 -12 -1 -8
3 9 10 -24 45 -35 38 -6 -3 -7 -1 -4 4 4 6 -1 17 -10 24 -14 12 -16 12 -8 0 5
-10 4 -12 -3 -7 -7 4 -12 12 -12 17 0 16 -53 69 -62 63 -5 -3 -7 0 -6 8 2 7
-3 12 -10 10 -6 -1 -11 4 -10 10 2 7 -3 12 -10 10 -6 -1 -11 1 -10 5 4 12 -44
63 -59 63 -8 0 -12 4 -9 9 7 11 -19 33 -28 23 -4 -4 -6 0 -4 8 1 8 -3 14 -10
12 -6 -1 -11 2 -10 6 4 10 -66 82 -80 82 -6 0 -14 5 -18 12 -5 7 -3 8 7 3 12
-8 12 -6 0 8 -7 9 -18 14 -24 10 -5 -3 -7 -2 -4 4 7 11 -28 44 -38 35 -4 -4
-5 0 -3 8 2 8 -3 14 -10 12 -8 -1 -11 1 -8 6 6 9 -47 62 -63 62 -5 0 -13 5
-17 12 -5 7 -3 8 7 3 12 -8 12 -6 0 8 -7 9 -18 14 -24 10 -5 -3 -7 -2 -4 4 7
11 -28 44 -38 35 -4 -4 -5 0 -3 8 1 8 -3 14 -10 12 -6 -1 -11 4 -10 10 2 7 -3
12 -10 10 -6 -1 -11 1 -10 5 4 12 -44 63 -59 63 -8 0 -12 4 -9 9 7 11 -19 33
-28 23 -4 -4 -6 0 -4 8 1 8 -3 14 -10 12 -6 -1 -11 4 -10 10 2 7 -4 11 -12 10
-8 -2 -12 -1 -8 3 9 10 -24 45 -35 38 -6 -3 -7 -1 -4 4 4 6 -1 17 -10 24 -14
12 -16 12 -8 0 5 -10 4 -12 -3 -7 -7 4 -12 12 -12 18 0 14 -72 84 -82 80 -4
-1 -7 4 -6 10 2 7 -3 12 -10 10 -8 -1 -11 2 -8 7 7 11 -18 33 -27 24 -4 -3 -7
0 -7 9 0 16 -50 64 -63 60 -4 -1 -6 4 -5 10 2 7 -3 12 -10 10 -6 -1 -11 4 -10
10 2 7 -3 12 -10 10 -6 -1 -11 4 -10 10 2 7 -3 12 -10 10 -8 -1 -11 2 -8 7 7
11 -18 33 -27 24 -4 -3 -7 0 -7 9 0 16 -50 64 -63 60 -4 -1 -6 4 -5 10 2 7 -3
12 -10 10 -6 -1 -11 4 -10 10 2 7 -4 11 -12 10 -8 -2 -12 -1 -8 3 9 10 -24 45
-35 38 -6 -3 -7 -1 -4 4 4 6 -1 17 -10 24 -14 12 -16 12 -8 0 5 -10 4 -12 -3
-7 -7 4 -12 12 -12 17 0 16 -53 69 -62 63 -5 -3 -7 -2 -6 3 4 12 -102 119
-114 115 -5 -1 -7 2 -3 8 3 5 -1 13 -11 17 -9 3 -47 37 -84 74 -37 38 -71 65
-75 61 -5 -4 -5 -2 -2 4 7 12 -10 32 -28 33 -5 1 -10 4 -10 9 0 16 -17 32 -28
26 -7 -4 -9 -4 -5 0 9 10 -74 96 -86 88 -5 -3 -6 0 -3 5 7 11 -21 40 -32 36
-3 -2 -6 1 -6 5 0 14 -32 41 -40 34 -5 -4 -5 -2 -2 4 8 14 -16 37 -29 26 -5
-4 -6 -3 -2 2 9 11 -194 216 -206 208 -5 -3 -6 0 -3 5 7 11 -21 40 -32 36 -3
-2 -6 1 -6 5 0 14 -32 41 -40 34 -5 -4 -5 -2 -2 4 8 14 -17 37 -28 26 -5 -4
-6 -2 -3 3 7 12 -118 136 -128 127 -4 -4 -4 -2 -1 4 8 14 -16 37 -29 26 -5 -4
-6 -3 -2 2 9 11 -194 216 -206 208 -5 -3 -6 0 -3 5 7 11 -10 31 -28 32 -5 1
-10 5 -10 9 0 15 -92 101 -100 94 -5 -4 -5 -2 -2 4 7 13 -16 37 -26 29 -4 -3
-5 -2 -2 1 5 8 -25 39 -39 39 -6 0 -11 5 -11 10 0 19 -16 35 -27 29 -6 -4 -9
-3 -6 2 8 12 -78 95 -88 86 -4 -4 -4 -2 -1 4 7 12 -10 32 -28 33 -5 1 -10 4
-10 9 0 16 -17 32 -27 26 -6 -4 -9 -3 -6 2 7 12 -197 215 -207 206 -5 -4 -5
-2 -2 4 7 13 -16 37 -26 29 -4 -3 -5 -2 -3 1 7 10 -138 152 -148 146 -5 -3 -6
0 -3 5 7 11 -10 31 -28 32 -5 1 -10 5 -10 9 0 14 -32 41 -40 34 -5 -4 -5 -2
-2 4 8 14 -17 37 -28 26 -5 -4 -6 -2 -3 3 7 12 -118 136 -128 127 -4 -4 -4 -2
-1 4 7 13 -16 37 -26 29 -4 -3 -5 -2 -2 1 6 10 -199 212 -209 206 -5 -3 -6 0
-3 5 7 11 -10 31 -28 32 -5 1 -10 4 -10 9 0 16 -17 32 -28 26 -7 -4 -9 -4 -5
0 9 10 -74 96 -86 88 -5 -3 -6 0 -3 5 7 11 -10 31 -28 32 -5 1 -10 5 -10 9 0
14 -32 41 -40 34 -5 -4 -5 -2 -2 4 8 14 -17 37 -28 26 -5 -4 -6 -2 -3 3 7 12
-118 136 -128 127 -4 -4 -4 -2 -1 4 7 13 -16 37 -26 29 -4 -3 -5 -2 -2 1 6 10
-199 212 -209 206 -5 -3 -6 0 -3 5 7 11 -10 31 -28 32 -5 1 -10 5 -10 9 0 15
-92 101 -100 94 -5 -4 -5 -2 -2 4 7 13 -16 37 -26 29 -4 -3 -5 -2 -2 1 5 8
-25 39 -39 39 -6 0 -11 5 -11 10 0 19 -16 35 -27 29 -6 -4 -9 -3 -6 2 8 12
-78 95 -88 86 -4 -4 -4 -2 -1 4 6 11 -9 31 -25 33 -5 1 -8 4 -9 9 -2 16 -22
31 -33 25 -6 -3 -8 -3 -4 2 5 5 -11 26 -35 47 -23 21 -53 48 -67 61 -13 12
-28 21 -32 20 -5 -2 -7 1 -5 6 3 11 -60 71 -67 64 -3 -4 -6 -1 -6 5 0 19 -33
52 -44 45 -6 -3 -8 -3 -4 2 9 9 -181 201 -194 197 -5 -1 -7 1 -4 6 6 10 -29
42 -46 42 -6 0 -9 3 -5 6 8 8 -93 110 -105 106 -5 -1 -7 1 -4 6 6 10 -29 42
-46 42 -6 0 -9 3 -5 6 7 7 -53 70 -64 66 -5 -1 -8 2 -7 6 4 11 -182 198 -193
194 -5 -1 -8 2 -7 7 4 11 -59 71 -66 64 -3 -4 -6 -1 -6 5 0 17 -32 52 -42 46
-5 -3 -7 -1 -6 4 4 11 -342 358 -354 354 -4 -1 -7 2 -6 7 4 11 -59 71 -66 64
-3 -4 -6 -1 -6 5 0 19 -33 52 -44 45 -6 -3 -8 -3 -4 1 9 11 -23 46 -35 39 -6
-3 -7 -2 -4 4 7 11 -27 43 -45 43 -6 0 -9 3 -5 6 7 7 -53 70 -64 67 -5 -2 -8
1 -6 5 3 12 -344 358 -355 354 -5 -1 -7 1 -4 6 6 10 -29 42 -46 42 -6 0 -8 3
-5 6 8 8 -253 270 -265 266 -5 -1 -7 1 -4 6 6 10 -29 42 -46 42 -6 0 -9 3 -5
6 8 8 -93 110 -105 106 -5 -1 -7 1 -4 6 6 10 -29 42 -46 42 -6 0 -9 3 -5 6 8
8 -96 114 -112 114 -7 0 -9 5 -6 10 14 22 -23 8 -46 -17z m182 -8600 c13 -16
12 -17 -3 -4 -10 7 -18 15 -18 17 0 8 8 3 21 -13z m240 -240 c13 -16 12 -17
-3 -4 -17 13 -22 21 -14 21 2 0 10 -8 17 -17z m400 -400 c13 -16 12 -17 -3 -4
-17 13 -22 21 -14 21 2 0 10 -8 17 -17z"/>
</g>
</svg>
