<svg xmlns="http://www.w3.org/2000/svg" xmlns:xlink="http://www.w3.org/1999/xlink" version="1.1" x="0px" y="0px" viewBox="-36 -36 216 216" enable-background="new 0 0 144.083 144" xml:space="preserve">
	<rect x="-36" y="-36" width="216" height="216" fill="#3498db"/>
	<path fill="#fff" d="M108.991,65.785c-3.652,0-7.092,0.934-10.092,2.572L81.467,41.114h9.121c0.828,0,1.5-0.671,1.5-1.5s-0.672-1.5-1.5-1.5  H75.987l11.068,17.299H47.752l-8.886-13.791H27.519c-0.829,0-1.5,0.671-1.5,1.5s0.671,1.5,1.5,1.5h9.711l8.036,12.471l-3.856,9.688  c-2.02-0.644-4.168-0.997-6.399-0.997c-11.65,0-21.129,9.479-21.129,21.13c0,11.65,9.479,21.129,21.129,21.129  c11.144,0,20.278-8.679,21.053-19.629h21.064c0.613,0,1.166-0.374,1.393-0.945l11.139-27.986l6.727,10.514  c-5.16,3.856-8.523,9.994-8.523,16.917c0,11.65,9.479,21.129,21.129,21.129s21.129-9.479,21.129-21.129  C130.12,75.264,120.641,65.785,108.991,65.785z M35.011,105.044c-9.996,0-18.129-8.133-18.129-18.129  c0-9.997,8.133-18.13,18.129-18.13c1.839,0,3.613,0.28,5.287,0.791L33.617,86.36c-0.184,0.462-0.127,0.985,0.152,1.396  c0.279,0.411,0.744,0.658,1.241,0.658h18.053C52.297,97.711,44.5,105.044,35.011,105.044z M37.222,85.415l5.856-14.712  c5.529,2.764,9.453,8.257,9.985,14.712H37.222z M76.11,85.415H56.063c-0.546-7.716-5.243-14.286-11.875-17.503l3.781-9.499h38.886  L76.11,85.415z M108.991,105.044c-9.996,0-18.129-8.133-18.129-18.129c0-5.864,2.811-11.071,7.143-14.388l9.723,15.196  c0.287,0.447,0.771,0.691,1.266,0.691c0.277,0,0.557-0.076,0.807-0.236c0.697-0.446,0.902-1.374,0.455-2.072l-9.73-15.21  c2.529-1.343,5.408-2.111,8.467-2.111c9.996,0,18.129,8.133,18.129,18.13C127.12,96.911,118.987,105.044,108.991,105.044z"/>
</svg>
