<svg xmlns:dc="http://purl.org/dc/elements/1.1/" xmlns:cc="http://creativecommons.org/ns#" xmlns:rdf="http://www.w3.org/1999/02/22-rdf-syntax-ns#" xmlns:svg="http://www.w3.org/2000/svg" xmlns="http://www.w3.org/2000/svg" xmlns:sodipodi="http://sodipodi.sourceforge.net/DTD/sodipodi-0.dtd" xmlns:inkscape="http://www.inkscape.org/namespaces/inkscape" version="1.1" x="0px" y="0px" viewBox="-25 -25 150 150">
	<rect x="-25" y="-25" width="150" height="150" fill="#2980b9"/>

	<g transform="translate(0,-952.36218)">
		<path style="font-size:medium;font-style:normal;font-variant:normal;font-weight:normal;font-stretch:normal;text-indent:0;text-align:start;text-decoration:none;line-height:normal;letter-spacing:normal;word-spacing:normal;text-transform:none;direction:ltr;block-progression:tb;writing-mode:lr-tb;text-anchor:start;baseline-shift:baseline;opacity:1;color:#000000;fill:#fff;fill-opacity:1;stroke:none;stroke-width:3.99999951999999980;marker:none;visibility:visible;display:inline;overflow:visible;enable-background:accumulate;font-family:Sans;-inkscape-font-specification:Sans" d="M 49.6875 14 A 2.0001998 2.0001998 0 0 0 48.0625 15.53125 C 46.358062 23.01769 40.999817 30.86024 35.9375 38.625 C 30.875183 46.38976 26 54.1133 26 62.125 C 26 75.2843 36.775871 86 50 86 C 63.22413 86 74 75.2843 74 62.125 C 74 54.1133 69.124817 46.38976 64.0625 38.625 C 59.000183 30.86024 53.641938 23.01769 51.9375 15.53125 A 2.0001998 2.0001998 0 0 0 49.6875 14 z M 50 22.3125 C 52.64686 28.74825 56.828894 34.89404 60.6875 40.8125 C 65.708517 48.5139 70 55.8209 70 62.125 C 70 73.1085 61.076402 82 50 82 C 38.923599 82 30 73.1085 30 62.125 C 30 55.8209 34.291483 48.5139 39.3125 40.8125 C 43.171106 34.89404 47.35314 28.74825 50 22.3125 z M 34.75 59.96875 A 2.0001996 2.0001996 0 0 0 33 62.21875 C 34.086267 71.57305 41.256268 79 50 79 A 2.0001996 2.0001996 0 1 0 50 75 C 43.542916 75 37.883837 69.3611 37 61.75 A 2.0001996 2.0001996 0 0 0 34.75 59.96875 z " transform="translate(0,952.36218)"/>
	</g>
</svg>
